<mxfile host="Electron" agent="Mozilla/5.0 (Macintosh; Intel Mac OS X 10_15_7) AppleWebKit/537.36 (KHTML, like Gecko) draw.io/25.0.2 Chrome/128.0.6613.186 Electron/32.2.5 Safari/537.36" version="25.0.2">
  <diagram name="Page-1" id="9f46799a-70d6-7492-0946-bef42562c5a5">
    <mxGraphModel dx="2292" dy="1422" grid="1" gridSize="10" guides="1" tooltips="1" connect="1" arrows="1" fold="1" page="1" pageScale="1" pageWidth="1400" pageHeight="850" background="none" math="0" shadow="0">
      <root>
        <mxCell id="0" />
        <mxCell id="1" parent="0" />
        <mxCell id="4eFh2s2mqRWO35xnz03z-1" value="account (用户表)" style="shape=table;startSize=30;container=1;collapsible=1;childLayout=tableLayout;fixedRows=1;rowLines=0;fontStyle=1;align=center;resizeLast=1;html=1;strokeColor=#D0CEE2;labelBackgroundColor=none;fillColor=#5D7F99;fontColor=#1A1A1A;rounded=1;" parent="1" vertex="1">
          <mxGeometry x="-120" y="90" width="310" height="240" as="geometry" />
        </mxCell>
        <mxCell id="4eFh2s2mqRWO35xnz03z-2" value="" style="shape=tableRow;horizontal=0;startSize=0;swimlaneHead=0;swimlaneBody=0;fillColor=none;collapsible=0;dropTarget=0;points=[[0,0.5],[1,0.5]];portConstraint=eastwest;top=0;left=0;right=0;bottom=1;labelBackgroundColor=none;strokeColor=#D0CEE2;fontColor=#1A1A1A;rounded=1;" parent="4eFh2s2mqRWO35xnz03z-1" vertex="1">
          <mxGeometry y="30" width="310" height="30" as="geometry" />
        </mxCell>
        <mxCell id="4eFh2s2mqRWO35xnz03z-3" value="PK" style="shape=partialRectangle;connectable=0;fillColor=none;top=0;left=0;bottom=0;right=0;fontStyle=1;overflow=hidden;whiteSpace=wrap;html=1;labelBackgroundColor=none;strokeColor=#D0CEE2;fontColor=#1A1A1A;rounded=1;" parent="4eFh2s2mqRWO35xnz03z-2" vertex="1">
          <mxGeometry width="30" height="30" as="geometry">
            <mxRectangle width="30" height="30" as="alternateBounds" />
          </mxGeometry>
        </mxCell>
        <mxCell id="4eFh2s2mqRWO35xnz03z-4" value="id uuid" style="shape=partialRectangle;connectable=0;fillColor=none;top=0;left=0;bottom=0;right=0;align=left;spacingLeft=6;fontStyle=5;overflow=hidden;whiteSpace=wrap;html=1;labelBackgroundColor=none;strokeColor=#D0CEE2;fontColor=#1A1A1A;rounded=1;" parent="4eFh2s2mqRWO35xnz03z-2" vertex="1">
          <mxGeometry x="30" width="280" height="30" as="geometry">
            <mxRectangle width="280" height="30" as="alternateBounds" />
          </mxGeometry>
        </mxCell>
        <mxCell id="4eFh2s2mqRWO35xnz03z-5" value="" style="shape=tableRow;horizontal=0;startSize=0;swimlaneHead=0;swimlaneBody=0;fillColor=none;collapsible=0;dropTarget=0;points=[[0,0.5],[1,0.5]];portConstraint=eastwest;top=0;left=0;right=0;bottom=0;labelBackgroundColor=none;strokeColor=#D0CEE2;fontColor=#1A1A1A;rounded=1;" parent="4eFh2s2mqRWO35xnz03z-1" vertex="1">
          <mxGeometry y="60" width="310" height="30" as="geometry" />
        </mxCell>
        <mxCell id="4eFh2s2mqRWO35xnz03z-6" value="" style="shape=partialRectangle;connectable=0;fillColor=none;top=0;left=0;bottom=0;right=0;editable=1;overflow=hidden;whiteSpace=wrap;html=1;labelBackgroundColor=none;strokeColor=#D0CEE2;fontColor=#1A1A1A;rounded=1;" parent="4eFh2s2mqRWO35xnz03z-5" vertex="1">
          <mxGeometry width="30" height="30" as="geometry">
            <mxRectangle width="30" height="30" as="alternateBounds" />
          </mxGeometry>
        </mxCell>
        <mxCell id="4eFh2s2mqRWO35xnz03z-7" value="name varchar(255) NOT NULL &quot;&quot; 名字" style="shape=partialRectangle;connectable=0;fillColor=none;top=0;left=0;bottom=0;right=0;align=left;spacingLeft=6;overflow=hidden;whiteSpace=wrap;html=1;labelBackgroundColor=none;strokeColor=#D0CEE2;fontColor=#1A1A1A;rounded=1;" parent="4eFh2s2mqRWO35xnz03z-5" vertex="1">
          <mxGeometry x="30" width="280" height="30" as="geometry">
            <mxRectangle width="280" height="30" as="alternateBounds" />
          </mxGeometry>
        </mxCell>
        <mxCell id="4eFh2s2mqRWO35xnz03z-8" value="" style="shape=tableRow;horizontal=0;startSize=0;swimlaneHead=0;swimlaneBody=0;fillColor=none;collapsible=0;dropTarget=0;points=[[0,0.5],[1,0.5]];portConstraint=eastwest;top=0;left=0;right=0;bottom=0;labelBackgroundColor=none;strokeColor=#D0CEE2;fontColor=#1A1A1A;rounded=1;" parent="4eFh2s2mqRWO35xnz03z-1" vertex="1">
          <mxGeometry y="90" width="310" height="30" as="geometry" />
        </mxCell>
        <mxCell id="4eFh2s2mqRWO35xnz03z-9" value="IDX" style="shape=partialRectangle;connectable=0;fillColor=none;top=0;left=0;bottom=0;right=0;editable=1;overflow=hidden;whiteSpace=wrap;html=1;labelBackgroundColor=none;strokeColor=#D0CEE2;fontColor=#1A1A1A;rounded=1;" parent="4eFh2s2mqRWO35xnz03z-8" vertex="1">
          <mxGeometry width="30" height="30" as="geometry">
            <mxRectangle width="30" height="30" as="alternateBounds" />
          </mxGeometry>
        </mxCell>
        <mxCell id="4eFh2s2mqRWO35xnz03z-10" value="email varchar(255) NOT NULL &quot;&quot; 邮箱" style="shape=partialRectangle;connectable=0;fillColor=none;top=0;left=0;bottom=0;right=0;align=left;spacingLeft=6;overflow=hidden;whiteSpace=wrap;html=1;labelBackgroundColor=none;strokeColor=#D0CEE2;fontColor=#1A1A1A;rounded=1;" parent="4eFh2s2mqRWO35xnz03z-8" vertex="1">
          <mxGeometry x="30" width="280" height="30" as="geometry">
            <mxRectangle width="280" height="30" as="alternateBounds" />
          </mxGeometry>
        </mxCell>
        <mxCell id="4eFh2s2mqRWO35xnz03z-11" value="" style="shape=tableRow;horizontal=0;startSize=0;swimlaneHead=0;swimlaneBody=0;fillColor=none;collapsible=0;dropTarget=0;points=[[0,0.5],[1,0.5]];portConstraint=eastwest;top=0;left=0;right=0;bottom=0;labelBackgroundColor=none;strokeColor=#D0CEE2;fontColor=#1A1A1A;rounded=1;" parent="4eFh2s2mqRWO35xnz03z-1" vertex="1">
          <mxGeometry y="120" width="310" height="30" as="geometry" />
        </mxCell>
        <mxCell id="4eFh2s2mqRWO35xnz03z-12" value="" style="shape=partialRectangle;connectable=0;fillColor=none;top=0;left=0;bottom=0;right=0;editable=1;overflow=hidden;whiteSpace=wrap;html=1;labelBackgroundColor=none;strokeColor=#D0CEE2;fontColor=#1A1A1A;rounded=1;" parent="4eFh2s2mqRWO35xnz03z-11" vertex="1">
          <mxGeometry width="30" height="30" as="geometry">
            <mxRectangle width="30" height="30" as="alternateBounds" />
          </mxGeometry>
        </mxCell>
        <mxCell id="4eFh2s2mqRWO35xnz03z-13" value="password varchar(255) NOT NULL &quot;&quot; 密码" style="shape=partialRectangle;connectable=0;fillColor=none;top=0;left=0;bottom=0;right=0;align=left;spacingLeft=6;overflow=hidden;whiteSpace=wrap;html=1;labelBackgroundColor=none;strokeColor=#D0CEE2;fontColor=#1A1A1A;rounded=1;" parent="4eFh2s2mqRWO35xnz03z-11" vertex="1">
          <mxGeometry x="30" width="280" height="30" as="geometry">
            <mxRectangle width="280" height="30" as="alternateBounds" />
          </mxGeometry>
        </mxCell>
        <mxCell id="4eFh2s2mqRWO35xnz03z-30" value="" style="shape=tableRow;horizontal=0;startSize=0;swimlaneHead=0;swimlaneBody=0;fillColor=none;collapsible=0;dropTarget=0;points=[[0,0.5],[1,0.5]];portConstraint=eastwest;top=0;left=0;right=0;bottom=0;labelBackgroundColor=none;strokeColor=#D0CEE2;fontColor=#1A1A1A;rounded=1;" parent="4eFh2s2mqRWO35xnz03z-1" vertex="1">
          <mxGeometry y="150" width="310" height="30" as="geometry" />
        </mxCell>
        <mxCell id="4eFh2s2mqRWO35xnz03z-31" value="" style="shape=partialRectangle;connectable=0;fillColor=none;top=0;left=0;bottom=0;right=0;editable=1;overflow=hidden;labelBackgroundColor=none;strokeColor=#D0CEE2;fontColor=#1A1A1A;rounded=1;" parent="4eFh2s2mqRWO35xnz03z-30" vertex="1">
          <mxGeometry width="30" height="30" as="geometry">
            <mxRectangle width="30" height="30" as="alternateBounds" />
          </mxGeometry>
        </mxCell>
        <mxCell id="4eFh2s2mqRWO35xnz03z-32" value="status varchar(100) NOT NULL &quot;&quot; 状态" style="shape=partialRectangle;connectable=0;fillColor=none;top=0;left=0;bottom=0;right=0;align=left;spacingLeft=6;overflow=hidden;labelBackgroundColor=none;strokeColor=#D0CEE2;fontColor=#1A1A1A;rounded=1;" parent="4eFh2s2mqRWO35xnz03z-30" vertex="1">
          <mxGeometry x="30" width="280" height="30" as="geometry">
            <mxRectangle width="280" height="30" as="alternateBounds" />
          </mxGeometry>
        </mxCell>
        <mxCell id="4eFh2s2mqRWO35xnz03z-33" value="" style="shape=tableRow;horizontal=0;startSize=0;swimlaneHead=0;swimlaneBody=0;fillColor=none;collapsible=0;dropTarget=0;points=[[0,0.5],[1,0.5]];portConstraint=eastwest;top=0;left=0;right=0;bottom=0;labelBackgroundColor=none;strokeColor=#D0CEE2;fontColor=#1A1A1A;rounded=1;" parent="4eFh2s2mqRWO35xnz03z-1" vertex="1">
          <mxGeometry y="180" width="310" height="30" as="geometry" />
        </mxCell>
        <mxCell id="4eFh2s2mqRWO35xnz03z-34" value="" style="shape=partialRectangle;connectable=0;fillColor=none;top=0;left=0;bottom=0;right=0;editable=1;overflow=hidden;labelBackgroundColor=none;strokeColor=#D0CEE2;fontColor=#1A1A1A;rounded=1;" parent="4eFh2s2mqRWO35xnz03z-33" vertex="1">
          <mxGeometry width="30" height="30" as="geometry">
            <mxRectangle width="30" height="30" as="alternateBounds" />
          </mxGeometry>
        </mxCell>
        <mxCell id="4eFh2s2mqRWO35xnz03z-35" value="created_at timestamp NOT NULL now 创建时间" style="shape=partialRectangle;connectable=0;fillColor=none;top=0;left=0;bottom=0;right=0;align=left;spacingLeft=6;overflow=hidden;labelBackgroundColor=none;strokeColor=#D0CEE2;fontColor=#1A1A1A;rounded=1;" parent="4eFh2s2mqRWO35xnz03z-33" vertex="1">
          <mxGeometry x="30" width="280" height="30" as="geometry">
            <mxRectangle width="280" height="30" as="alternateBounds" />
          </mxGeometry>
        </mxCell>
        <mxCell id="4eFh2s2mqRWO35xnz03z-36" value="" style="shape=tableRow;horizontal=0;startSize=0;swimlaneHead=0;swimlaneBody=0;fillColor=none;collapsible=0;dropTarget=0;points=[[0,0.5],[1,0.5]];portConstraint=eastwest;top=0;left=0;right=0;bottom=0;labelBackgroundColor=none;strokeColor=#D0CEE2;fontColor=#1A1A1A;rounded=1;" parent="4eFh2s2mqRWO35xnz03z-1" vertex="1">
          <mxGeometry y="210" width="310" height="30" as="geometry" />
        </mxCell>
        <mxCell id="4eFh2s2mqRWO35xnz03z-37" value="" style="shape=partialRectangle;connectable=0;fillColor=none;top=0;left=0;bottom=0;right=0;editable=1;overflow=hidden;labelBackgroundColor=none;strokeColor=#D0CEE2;fontColor=#1A1A1A;rounded=1;" parent="4eFh2s2mqRWO35xnz03z-36" vertex="1">
          <mxGeometry width="30" height="30" as="geometry">
            <mxRectangle width="30" height="30" as="alternateBounds" />
          </mxGeometry>
        </mxCell>
        <mxCell id="4eFh2s2mqRWO35xnz03z-38" value="updated_at timestamp NOT NULL now 更新时间" style="shape=partialRectangle;connectable=0;fillColor=none;top=0;left=0;bottom=0;right=0;align=left;spacingLeft=6;overflow=hidden;labelBackgroundColor=none;strokeColor=#D0CEE2;fontColor=#1A1A1A;rounded=1;" parent="4eFh2s2mqRWO35xnz03z-36" vertex="1">
          <mxGeometry x="30" width="280" height="30" as="geometry">
            <mxRectangle width="280" height="30" as="alternateBounds" />
          </mxGeometry>
        </mxCell>
        <mxCell id="4eFh2s2mqRWO35xnz03z-14" value="app (应用表)" style="shape=table;startSize=30;container=1;collapsible=1;childLayout=tableLayout;fixedRows=1;rowLines=0;fontStyle=1;align=center;resizeLast=1;html=1;labelBackgroundColor=none;fillColor=#5D7F99;strokeColor=#D0CEE2;fontColor=#1A1A1A;rounded=1;" parent="1" vertex="1">
          <mxGeometry x="600" y="-190" width="310" height="360" as="geometry" />
        </mxCell>
        <mxCell id="4eFh2s2mqRWO35xnz03z-15" value="" style="shape=tableRow;horizontal=0;startSize=0;swimlaneHead=0;swimlaneBody=0;fillColor=none;collapsible=0;dropTarget=0;points=[[0,0.5],[1,0.5]];portConstraint=eastwest;top=0;left=0;right=0;bottom=1;labelBackgroundColor=none;strokeColor=#D0CEE2;fontColor=#1A1A1A;rounded=1;" parent="4eFh2s2mqRWO35xnz03z-14" vertex="1">
          <mxGeometry y="30" width="310" height="30" as="geometry" />
        </mxCell>
        <mxCell id="4eFh2s2mqRWO35xnz03z-16" value="PK" style="shape=partialRectangle;connectable=0;fillColor=none;top=0;left=0;bottom=0;right=0;fontStyle=1;overflow=hidden;whiteSpace=wrap;html=1;labelBackgroundColor=none;strokeColor=#D0CEE2;fontColor=#1A1A1A;rounded=1;" parent="4eFh2s2mqRWO35xnz03z-15" vertex="1">
          <mxGeometry width="30" height="30" as="geometry">
            <mxRectangle width="30" height="30" as="alternateBounds" />
          </mxGeometry>
        </mxCell>
        <mxCell id="4eFh2s2mqRWO35xnz03z-17" value="id uuid" style="shape=partialRectangle;connectable=0;fillColor=none;top=0;left=0;bottom=0;right=0;align=left;spacingLeft=6;fontStyle=5;overflow=hidden;whiteSpace=wrap;html=1;labelBackgroundColor=none;strokeColor=#D0CEE2;fontColor=#1A1A1A;rounded=1;" parent="4eFh2s2mqRWO35xnz03z-15" vertex="1">
          <mxGeometry x="30" width="280" height="30" as="geometry">
            <mxRectangle width="280" height="30" as="alternateBounds" />
          </mxGeometry>
        </mxCell>
        <mxCell id="4eFh2s2mqRWO35xnz03z-18" value="" style="shape=tableRow;horizontal=0;startSize=0;swimlaneHead=0;swimlaneBody=0;fillColor=none;collapsible=0;dropTarget=0;points=[[0,0.5],[1,0.5]];portConstraint=eastwest;top=0;left=0;right=0;bottom=0;labelBackgroundColor=none;strokeColor=#D0CEE2;fontColor=#1A1A1A;rounded=1;" parent="4eFh2s2mqRWO35xnz03z-14" vertex="1">
          <mxGeometry y="60" width="310" height="30" as="geometry" />
        </mxCell>
        <mxCell id="4eFh2s2mqRWO35xnz03z-19" value="IDX" style="shape=partialRectangle;connectable=0;fillColor=none;top=0;left=0;bottom=0;right=0;editable=1;overflow=hidden;whiteSpace=wrap;html=1;labelBackgroundColor=none;strokeColor=#D0CEE2;fontColor=#1A1A1A;rounded=1;" parent="4eFh2s2mqRWO35xnz03z-18" vertex="1">
          <mxGeometry width="30" height="30" as="geometry">
            <mxRectangle width="30" height="30" as="alternateBounds" />
          </mxGeometry>
        </mxCell>
        <mxCell id="4eFh2s2mqRWO35xnz03z-20" value="account_id uuid NOT NULL 用户ID" style="shape=partialRectangle;connectable=0;fillColor=none;top=0;left=0;bottom=0;right=0;align=left;spacingLeft=6;overflow=hidden;whiteSpace=wrap;html=1;labelBackgroundColor=none;strokeColor=#D0CEE2;fontColor=#1A1A1A;rounded=1;" parent="4eFh2s2mqRWO35xnz03z-18" vertex="1">
          <mxGeometry x="30" width="280" height="30" as="geometry">
            <mxRectangle width="280" height="30" as="alternateBounds" />
          </mxGeometry>
        </mxCell>
        <mxCell id="4eFh2s2mqRWO35xnz03z-21" value="" style="shape=tableRow;horizontal=0;startSize=0;swimlaneHead=0;swimlaneBody=0;fillColor=none;collapsible=0;dropTarget=0;points=[[0,0.5],[1,0.5]];portConstraint=eastwest;top=0;left=0;right=0;bottom=0;labelBackgroundColor=none;strokeColor=#D0CEE2;fontColor=#1A1A1A;rounded=1;" parent="4eFh2s2mqRWO35xnz03z-14" vertex="1">
          <mxGeometry y="90" width="310" height="30" as="geometry" />
        </mxCell>
        <mxCell id="4eFh2s2mqRWO35xnz03z-22" value="" style="shape=partialRectangle;connectable=0;fillColor=none;top=0;left=0;bottom=0;right=0;editable=1;overflow=hidden;whiteSpace=wrap;html=1;labelBackgroundColor=none;strokeColor=#D0CEE2;fontColor=#1A1A1A;rounded=1;" parent="4eFh2s2mqRWO35xnz03z-21" vertex="1">
          <mxGeometry width="30" height="30" as="geometry">
            <mxRectangle width="30" height="30" as="alternateBounds" />
          </mxGeometry>
        </mxCell>
        <mxCell id="4eFh2s2mqRWO35xnz03z-23" value="name varchar(255) “” 应用名字" style="shape=partialRectangle;connectable=0;fillColor=none;top=0;left=0;bottom=0;right=0;align=left;spacingLeft=6;overflow=hidden;whiteSpace=wrap;html=1;labelBackgroundColor=none;strokeColor=#D0CEE2;fontColor=#1A1A1A;rounded=1;" parent="4eFh2s2mqRWO35xnz03z-21" vertex="1">
          <mxGeometry x="30" width="280" height="30" as="geometry">
            <mxRectangle width="280" height="30" as="alternateBounds" />
          </mxGeometry>
        </mxCell>
        <mxCell id="4eFh2s2mqRWO35xnz03z-24" value="" style="shape=tableRow;horizontal=0;startSize=0;swimlaneHead=0;swimlaneBody=0;fillColor=none;collapsible=0;dropTarget=0;points=[[0,0.5],[1,0.5]];portConstraint=eastwest;top=0;left=0;right=0;bottom=0;labelBackgroundColor=none;strokeColor=#D0CEE2;fontColor=#1A1A1A;rounded=1;" parent="4eFh2s2mqRWO35xnz03z-14" vertex="1">
          <mxGeometry y="120" width="310" height="30" as="geometry" />
        </mxCell>
        <mxCell id="4eFh2s2mqRWO35xnz03z-25" value="" style="shape=partialRectangle;connectable=0;fillColor=none;top=0;left=0;bottom=0;right=0;editable=1;overflow=hidden;whiteSpace=wrap;html=1;labelBackgroundColor=none;strokeColor=#D0CEE2;fontColor=#1A1A1A;rounded=1;" parent="4eFh2s2mqRWO35xnz03z-24" vertex="1">
          <mxGeometry width="30" height="30" as="geometry">
            <mxRectangle width="30" height="30" as="alternateBounds" />
          </mxGeometry>
        </mxCell>
        <mxCell id="4eFh2s2mqRWO35xnz03z-26" value="description text NOT NULL&amp;nbsp;&quot;&quot; 描述" style="shape=partialRectangle;connectable=0;fillColor=none;top=0;left=0;bottom=0;right=0;align=left;spacingLeft=6;overflow=hidden;whiteSpace=wrap;html=1;labelBackgroundColor=none;strokeColor=#D0CEE2;fontColor=#1A1A1A;rounded=1;" parent="4eFh2s2mqRWO35xnz03z-24" vertex="1">
          <mxGeometry x="30" width="280" height="30" as="geometry">
            <mxRectangle width="280" height="30" as="alternateBounds" />
          </mxGeometry>
        </mxCell>
        <mxCell id="4eFh2s2mqRWO35xnz03z-39" value="" style="shape=tableRow;horizontal=0;startSize=0;swimlaneHead=0;swimlaneBody=0;fillColor=none;collapsible=0;dropTarget=0;points=[[0,0.5],[1,0.5]];portConstraint=eastwest;top=0;left=0;right=0;bottom=0;labelBackgroundColor=none;strokeColor=#D0CEE2;fontColor=#1A1A1A;rounded=1;" parent="4eFh2s2mqRWO35xnz03z-14" vertex="1">
          <mxGeometry y="150" width="310" height="30" as="geometry" />
        </mxCell>
        <mxCell id="4eFh2s2mqRWO35xnz03z-40" value="" style="shape=partialRectangle;connectable=0;fillColor=none;top=0;left=0;bottom=0;right=0;editable=1;overflow=hidden;labelBackgroundColor=none;strokeColor=#D0CEE2;fontColor=#1A1A1A;rounded=1;" parent="4eFh2s2mqRWO35xnz03z-39" vertex="1">
          <mxGeometry width="30" height="30" as="geometry">
            <mxRectangle width="30" height="30" as="alternateBounds" />
          </mxGeometry>
        </mxCell>
        <mxCell id="4eFh2s2mqRWO35xnz03z-41" value="icon varchar(255) NOT NULL &quot;&quot; 图标" style="shape=partialRectangle;connectable=0;fillColor=none;top=0;left=0;bottom=0;right=0;align=left;spacingLeft=6;overflow=hidden;labelBackgroundColor=none;strokeColor=#D0CEE2;fontColor=#1A1A1A;rounded=1;" parent="4eFh2s2mqRWO35xnz03z-39" vertex="1">
          <mxGeometry x="30" width="280" height="30" as="geometry">
            <mxRectangle width="280" height="30" as="alternateBounds" />
          </mxGeometry>
        </mxCell>
        <mxCell id="4eFh2s2mqRWO35xnz03z-43" value="" style="shape=tableRow;horizontal=0;startSize=0;swimlaneHead=0;swimlaneBody=0;fillColor=none;collapsible=0;dropTarget=0;points=[[0,0.5],[1,0.5]];portConstraint=eastwest;top=0;left=0;right=0;bottom=0;labelBackgroundColor=none;strokeColor=#D0CEE2;fontColor=#1A1A1A;rounded=1;" parent="4eFh2s2mqRWO35xnz03z-14" vertex="1">
          <mxGeometry y="180" width="310" height="30" as="geometry" />
        </mxCell>
        <mxCell id="4eFh2s2mqRWO35xnz03z-44" value="" style="shape=partialRectangle;connectable=0;fillColor=none;top=0;left=0;bottom=0;right=0;editable=1;overflow=hidden;labelBackgroundColor=none;strokeColor=#D0CEE2;fontColor=#1A1A1A;rounded=1;" parent="4eFh2s2mqRWO35xnz03z-43" vertex="1">
          <mxGeometry width="30" height="30" as="geometry">
            <mxRectangle width="30" height="30" as="alternateBounds" />
          </mxGeometry>
        </mxCell>
        <mxCell id="4eFh2s2mqRWO35xnz03z-45" value="status varchar(100) NOT NULL &quot;&quot; 状态" style="shape=partialRectangle;connectable=0;fillColor=none;top=0;left=0;bottom=0;right=0;align=left;spacingLeft=6;overflow=hidden;labelBackgroundColor=none;strokeColor=#D0CEE2;fontColor=#1A1A1A;rounded=1;" parent="4eFh2s2mqRWO35xnz03z-43" vertex="1">
          <mxGeometry x="30" width="280" height="30" as="geometry">
            <mxRectangle width="280" height="30" as="alternateBounds" />
          </mxGeometry>
        </mxCell>
        <mxCell id="4eFh2s2mqRWO35xnz03z-46" value="" style="shape=tableRow;horizontal=0;startSize=0;swimlaneHead=0;swimlaneBody=0;fillColor=none;collapsible=0;dropTarget=0;points=[[0,0.5],[1,0.5]];portConstraint=eastwest;top=0;left=0;right=0;bottom=0;labelBackgroundColor=none;strokeColor=#D0CEE2;fontColor=#1A1A1A;rounded=1;" parent="4eFh2s2mqRWO35xnz03z-14" vertex="1">
          <mxGeometry y="210" width="310" height="30" as="geometry" />
        </mxCell>
        <mxCell id="4eFh2s2mqRWO35xnz03z-47" value="" style="shape=partialRectangle;connectable=0;fillColor=none;top=0;left=0;bottom=0;right=0;editable=1;overflow=hidden;labelBackgroundColor=none;strokeColor=#D0CEE2;fontColor=#1A1A1A;rounded=1;" parent="4eFh2s2mqRWO35xnz03z-46" vertex="1">
          <mxGeometry width="30" height="30" as="geometry">
            <mxRectangle width="30" height="30" as="alternateBounds" />
          </mxGeometry>
        </mxCell>
        <mxCell id="4eFh2s2mqRWO35xnz03z-48" value="published_app_config_id uuid 已发布配置ID" style="shape=partialRectangle;connectable=0;fillColor=none;top=0;left=0;bottom=0;right=0;align=left;spacingLeft=6;overflow=hidden;labelBackgroundColor=none;strokeColor=#D0CEE2;fontColor=#1A1A1A;rounded=1;" parent="4eFh2s2mqRWO35xnz03z-46" vertex="1">
          <mxGeometry x="30" width="280" height="30" as="geometry">
            <mxRectangle width="280" height="30" as="alternateBounds" />
          </mxGeometry>
        </mxCell>
        <mxCell id="4eFh2s2mqRWO35xnz03z-49" value="" style="shape=tableRow;horizontal=0;startSize=0;swimlaneHead=0;swimlaneBody=0;fillColor=none;collapsible=0;dropTarget=0;points=[[0,0.5],[1,0.5]];portConstraint=eastwest;top=0;left=0;right=0;bottom=0;labelBackgroundColor=none;strokeColor=#D0CEE2;fontColor=#1A1A1A;rounded=1;" parent="4eFh2s2mqRWO35xnz03z-14" vertex="1">
          <mxGeometry y="240" width="310" height="30" as="geometry" />
        </mxCell>
        <mxCell id="4eFh2s2mqRWO35xnz03z-50" value="" style="shape=partialRectangle;connectable=0;fillColor=none;top=0;left=0;bottom=0;right=0;editable=1;overflow=hidden;labelBackgroundColor=none;strokeColor=#D0CEE2;fontColor=#1A1A1A;rounded=1;" parent="4eFh2s2mqRWO35xnz03z-49" vertex="1">
          <mxGeometry width="30" height="30" as="geometry">
            <mxRectangle width="30" height="30" as="alternateBounds" />
          </mxGeometry>
        </mxCell>
        <mxCell id="4eFh2s2mqRWO35xnz03z-51" value="drafted_app_config_id uuid 草稿配置ID" style="shape=partialRectangle;connectable=0;fillColor=none;top=0;left=0;bottom=0;right=0;align=left;spacingLeft=6;overflow=hidden;labelBackgroundColor=none;strokeColor=#D0CEE2;fontColor=#1A1A1A;rounded=1;" parent="4eFh2s2mqRWO35xnz03z-49" vertex="1">
          <mxGeometry x="30" width="280" height="30" as="geometry">
            <mxRectangle width="280" height="30" as="alternateBounds" />
          </mxGeometry>
        </mxCell>
        <mxCell id="4eFh2s2mqRWO35xnz03z-149" value="" style="shape=tableRow;horizontal=0;startSize=0;swimlaneHead=0;swimlaneBody=0;fillColor=none;collapsible=0;dropTarget=0;points=[[0,0.5],[1,0.5]];portConstraint=eastwest;top=0;left=0;right=0;bottom=0;labelBackgroundColor=none;strokeColor=#D0CEE2;fontColor=#1A1A1A;rounded=1;" parent="4eFh2s2mqRWO35xnz03z-14" vertex="1">
          <mxGeometry y="270" width="310" height="30" as="geometry" />
        </mxCell>
        <mxCell id="4eFh2s2mqRWO35xnz03z-150" value="" style="shape=partialRectangle;connectable=0;fillColor=none;top=0;left=0;bottom=0;right=0;editable=1;overflow=hidden;labelBackgroundColor=none;strokeColor=#D0CEE2;fontColor=#1A1A1A;rounded=1;" parent="4eFh2s2mqRWO35xnz03z-149" vertex="1">
          <mxGeometry width="30" height="30" as="geometry">
            <mxRectangle width="30" height="30" as="alternateBounds" />
          </mxGeometry>
        </mxCell>
        <mxCell id="4eFh2s2mqRWO35xnz03z-151" value="debug_conversation_id 调试会话ID" style="shape=partialRectangle;connectable=0;fillColor=none;top=0;left=0;bottom=0;right=0;align=left;spacingLeft=6;overflow=hidden;labelBackgroundColor=none;strokeColor=#D0CEE2;fontColor=#1A1A1A;rounded=1;" parent="4eFh2s2mqRWO35xnz03z-149" vertex="1">
          <mxGeometry x="30" width="280" height="30" as="geometry">
            <mxRectangle width="280" height="30" as="alternateBounds" />
          </mxGeometry>
        </mxCell>
        <mxCell id="4eFh2s2mqRWO35xnz03z-52" value="" style="shape=tableRow;horizontal=0;startSize=0;swimlaneHead=0;swimlaneBody=0;fillColor=none;collapsible=0;dropTarget=0;points=[[0,0.5],[1,0.5]];portConstraint=eastwest;top=0;left=0;right=0;bottom=0;labelBackgroundColor=none;strokeColor=#D0CEE2;fontColor=#1A1A1A;rounded=1;" parent="4eFh2s2mqRWO35xnz03z-14" vertex="1">
          <mxGeometry y="300" width="310" height="30" as="geometry" />
        </mxCell>
        <mxCell id="4eFh2s2mqRWO35xnz03z-53" value="" style="shape=partialRectangle;connectable=0;fillColor=none;top=0;left=0;bottom=0;right=0;editable=1;overflow=hidden;labelBackgroundColor=none;strokeColor=#D0CEE2;fontColor=#1A1A1A;rounded=1;" parent="4eFh2s2mqRWO35xnz03z-52" vertex="1">
          <mxGeometry width="30" height="30" as="geometry">
            <mxRectangle width="30" height="30" as="alternateBounds" />
          </mxGeometry>
        </mxCell>
        <mxCell id="4eFh2s2mqRWO35xnz03z-54" value="created_at timestamp NOT NULL now 创建时间" style="shape=partialRectangle;connectable=0;fillColor=none;top=0;left=0;bottom=0;right=0;align=left;spacingLeft=6;overflow=hidden;labelBackgroundColor=none;strokeColor=#D0CEE2;fontColor=#1A1A1A;rounded=1;" parent="4eFh2s2mqRWO35xnz03z-52" vertex="1">
          <mxGeometry x="30" width="280" height="30" as="geometry">
            <mxRectangle width="280" height="30" as="alternateBounds" />
          </mxGeometry>
        </mxCell>
        <mxCell id="4eFh2s2mqRWO35xnz03z-55" value="" style="shape=tableRow;horizontal=0;startSize=0;swimlaneHead=0;swimlaneBody=0;fillColor=none;collapsible=0;dropTarget=0;points=[[0,0.5],[1,0.5]];portConstraint=eastwest;top=0;left=0;right=0;bottom=0;labelBackgroundColor=none;strokeColor=#D0CEE2;fontColor=#1A1A1A;rounded=1;" parent="4eFh2s2mqRWO35xnz03z-14" vertex="1">
          <mxGeometry y="330" width="310" height="30" as="geometry" />
        </mxCell>
        <mxCell id="4eFh2s2mqRWO35xnz03z-56" value="" style="shape=partialRectangle;connectable=0;fillColor=none;top=0;left=0;bottom=0;right=0;editable=1;overflow=hidden;labelBackgroundColor=none;strokeColor=#D0CEE2;fontColor=#1A1A1A;rounded=1;" parent="4eFh2s2mqRWO35xnz03z-55" vertex="1">
          <mxGeometry width="30" height="30" as="geometry">
            <mxRectangle width="30" height="30" as="alternateBounds" />
          </mxGeometry>
        </mxCell>
        <mxCell id="4eFh2s2mqRWO35xnz03z-57" value="updated_at timestamp NOT NULL now 更新时间" style="shape=partialRectangle;connectable=0;fillColor=none;top=0;left=0;bottom=0;right=0;align=left;spacingLeft=6;overflow=hidden;labelBackgroundColor=none;strokeColor=#D0CEE2;fontColor=#1A1A1A;rounded=1;" parent="4eFh2s2mqRWO35xnz03z-55" vertex="1">
          <mxGeometry x="30" width="280" height="30" as="geometry">
            <mxRectangle width="280" height="30" as="alternateBounds" />
          </mxGeometry>
        </mxCell>
        <mxCell id="4eFh2s2mqRWO35xnz03z-58" value="" style="edgeStyle=entityRelationEdgeStyle;fontSize=12;html=1;endArrow=ERoneToMany;rounded=1;exitX=1;exitY=0.5;exitDx=0;exitDy=0;entryX=0;entryY=0.5;entryDx=0;entryDy=0;labelBackgroundColor=none;strokeColor=#736CA8;fontColor=default;" parent="1" source="4eFh2s2mqRWO35xnz03z-2" target="4eFh2s2mqRWO35xnz03z-18" edge="1">
          <mxGeometry width="100" height="100" relative="1" as="geometry">
            <mxPoint x="540" y="290" as="sourcePoint" />
            <mxPoint x="640" y="190" as="targetPoint" />
          </mxGeometry>
        </mxCell>
        <mxCell id="4eFh2s2mqRWO35xnz03z-72" value="app_config (应用配置表)" style="shape=table;startSize=30;container=1;collapsible=1;childLayout=tableLayout;fixedRows=1;rowLines=0;fontStyle=1;align=center;resizeLast=1;html=1;labelBackgroundColor=none;fillColor=#5D7F99;strokeColor=#D0CEE2;fontColor=#1A1A1A;rounded=1;" parent="1" vertex="1">
          <mxGeometry x="1040" y="-160" width="320" height="240" as="geometry" />
        </mxCell>
        <mxCell id="4eFh2s2mqRWO35xnz03z-73" value="" style="shape=tableRow;horizontal=0;startSize=0;swimlaneHead=0;swimlaneBody=0;fillColor=none;collapsible=0;dropTarget=0;points=[[0,0.5],[1,0.5]];portConstraint=eastwest;top=0;left=0;right=0;bottom=1;labelBackgroundColor=none;strokeColor=#D0CEE2;fontColor=#1A1A1A;rounded=1;" parent="4eFh2s2mqRWO35xnz03z-72" vertex="1">
          <mxGeometry y="30" width="320" height="30" as="geometry" />
        </mxCell>
        <mxCell id="4eFh2s2mqRWO35xnz03z-74" value="PK" style="shape=partialRectangle;connectable=0;fillColor=none;top=0;left=0;bottom=0;right=0;fontStyle=1;overflow=hidden;whiteSpace=wrap;html=1;labelBackgroundColor=none;strokeColor=#D0CEE2;fontColor=#1A1A1A;rounded=1;" parent="4eFh2s2mqRWO35xnz03z-73" vertex="1">
          <mxGeometry width="30" height="30" as="geometry">
            <mxRectangle width="30" height="30" as="alternateBounds" />
          </mxGeometry>
        </mxCell>
        <mxCell id="4eFh2s2mqRWO35xnz03z-75" value="id uuid" style="shape=partialRectangle;connectable=0;fillColor=none;top=0;left=0;bottom=0;right=0;align=left;spacingLeft=6;fontStyle=5;overflow=hidden;whiteSpace=wrap;html=1;labelBackgroundColor=none;strokeColor=#D0CEE2;fontColor=#1A1A1A;rounded=1;" parent="4eFh2s2mqRWO35xnz03z-73" vertex="1">
          <mxGeometry x="30" width="290" height="30" as="geometry">
            <mxRectangle width="290" height="30" as="alternateBounds" />
          </mxGeometry>
        </mxCell>
        <mxCell id="4eFh2s2mqRWO35xnz03z-76" value="" style="shape=tableRow;horizontal=0;startSize=0;swimlaneHead=0;swimlaneBody=0;fillColor=none;collapsible=0;dropTarget=0;points=[[0,0.5],[1,0.5]];portConstraint=eastwest;top=0;left=0;right=0;bottom=0;labelBackgroundColor=none;strokeColor=#D0CEE2;fontColor=#1A1A1A;rounded=1;" parent="4eFh2s2mqRWO35xnz03z-72" vertex="1">
          <mxGeometry y="60" width="320" height="30" as="geometry" />
        </mxCell>
        <mxCell id="4eFh2s2mqRWO35xnz03z-77" value="IDX" style="shape=partialRectangle;connectable=0;fillColor=none;top=0;left=0;bottom=0;right=0;editable=1;overflow=hidden;whiteSpace=wrap;html=1;labelBackgroundColor=none;strokeColor=#D0CEE2;fontColor=#1A1A1A;rounded=1;" parent="4eFh2s2mqRWO35xnz03z-76" vertex="1">
          <mxGeometry width="30" height="30" as="geometry">
            <mxRectangle width="30" height="30" as="alternateBounds" />
          </mxGeometry>
        </mxCell>
        <mxCell id="4eFh2s2mqRWO35xnz03z-78" value="app_id uuid NOT NULL 应用ID" style="shape=partialRectangle;connectable=0;fillColor=none;top=0;left=0;bottom=0;right=0;align=left;spacingLeft=6;overflow=hidden;whiteSpace=wrap;html=1;labelBackgroundColor=none;strokeColor=#D0CEE2;fontColor=#1A1A1A;rounded=1;" parent="4eFh2s2mqRWO35xnz03z-76" vertex="1">
          <mxGeometry x="30" width="290" height="30" as="geometry">
            <mxRectangle width="290" height="30" as="alternateBounds" />
          </mxGeometry>
        </mxCell>
        <mxCell id="4eFh2s2mqRWO35xnz03z-79" value="" style="shape=tableRow;horizontal=0;startSize=0;swimlaneHead=0;swimlaneBody=0;fillColor=none;collapsible=0;dropTarget=0;points=[[0,0.5],[1,0.5]];portConstraint=eastwest;top=0;left=0;right=0;bottom=0;labelBackgroundColor=none;strokeColor=#D0CEE2;fontColor=#1A1A1A;rounded=1;" parent="4eFh2s2mqRWO35xnz03z-72" vertex="1">
          <mxGeometry y="90" width="320" height="30" as="geometry" />
        </mxCell>
        <mxCell id="4eFh2s2mqRWO35xnz03z-80" value="" style="shape=partialRectangle;connectable=0;fillColor=none;top=0;left=0;bottom=0;right=0;editable=1;overflow=hidden;whiteSpace=wrap;html=1;labelBackgroundColor=none;strokeColor=#D0CEE2;fontColor=#1A1A1A;rounded=1;" parent="4eFh2s2mqRWO35xnz03z-79" vertex="1">
          <mxGeometry width="30" height="30" as="geometry">
            <mxRectangle width="30" height="30" as="alternateBounds" />
          </mxGeometry>
        </mxCell>
        <mxCell id="4eFh2s2mqRWO35xnz03z-81" value="model_config JSONB 模型配置" style="shape=partialRectangle;connectable=0;fillColor=none;top=0;left=0;bottom=0;right=0;align=left;spacingLeft=6;overflow=hidden;whiteSpace=wrap;html=1;labelBackgroundColor=none;strokeColor=#D0CEE2;fontColor=#1A1A1A;rounded=1;" parent="4eFh2s2mqRWO35xnz03z-79" vertex="1">
          <mxGeometry x="30" width="290" height="30" as="geometry">
            <mxRectangle width="290" height="30" as="alternateBounds" />
          </mxGeometry>
        </mxCell>
        <mxCell id="4eFh2s2mqRWO35xnz03z-82" value="" style="shape=tableRow;horizontal=0;startSize=0;swimlaneHead=0;swimlaneBody=0;fillColor=none;collapsible=0;dropTarget=0;points=[[0,0.5],[1,0.5]];portConstraint=eastwest;top=0;left=0;right=0;bottom=0;labelBackgroundColor=none;strokeColor=#D0CEE2;fontColor=#1A1A1A;rounded=1;" parent="4eFh2s2mqRWO35xnz03z-72" vertex="1">
          <mxGeometry y="120" width="320" height="30" as="geometry" />
        </mxCell>
        <mxCell id="4eFh2s2mqRWO35xnz03z-83" value="" style="shape=partialRectangle;connectable=0;fillColor=none;top=0;left=0;bottom=0;right=0;editable=1;overflow=hidden;whiteSpace=wrap;html=1;labelBackgroundColor=none;strokeColor=#D0CEE2;fontColor=#1A1A1A;rounded=1;" parent="4eFh2s2mqRWO35xnz03z-82" vertex="1">
          <mxGeometry width="30" height="30" as="geometry">
            <mxRectangle width="30" height="30" as="alternateBounds" />
          </mxGeometry>
        </mxCell>
        <mxCell id="4eFh2s2mqRWO35xnz03z-84" value="memory_mode varchar(100) NOT NULL 记忆模型" style="shape=partialRectangle;connectable=0;fillColor=none;top=0;left=0;bottom=0;right=0;align=left;spacingLeft=6;overflow=hidden;whiteSpace=wrap;html=1;labelBackgroundColor=none;strokeColor=#D0CEE2;fontColor=#1A1A1A;rounded=1;" parent="4eFh2s2mqRWO35xnz03z-82" vertex="1">
          <mxGeometry x="30" width="290" height="30" as="geometry">
            <mxRectangle width="290" height="30" as="alternateBounds" />
          </mxGeometry>
        </mxCell>
        <mxCell id="4eFh2s2mqRWO35xnz03z-85" value="" style="shape=tableRow;horizontal=0;startSize=0;swimlaneHead=0;swimlaneBody=0;fillColor=none;collapsible=0;dropTarget=0;points=[[0,0.5],[1,0.5]];portConstraint=eastwest;top=0;left=0;right=0;bottom=0;labelBackgroundColor=none;strokeColor=#D0CEE2;fontColor=#1A1A1A;rounded=1;" parent="4eFh2s2mqRWO35xnz03z-72" vertex="1">
          <mxGeometry y="150" width="320" height="30" as="geometry" />
        </mxCell>
        <mxCell id="4eFh2s2mqRWO35xnz03z-86" value="" style="shape=partialRectangle;connectable=0;fillColor=none;top=0;left=0;bottom=0;right=0;editable=1;overflow=hidden;labelBackgroundColor=none;strokeColor=#D0CEE2;fontColor=#1A1A1A;rounded=1;" parent="4eFh2s2mqRWO35xnz03z-85" vertex="1">
          <mxGeometry width="30" height="30" as="geometry">
            <mxRectangle width="30" height="30" as="alternateBounds" />
          </mxGeometry>
        </mxCell>
        <mxCell id="4eFh2s2mqRWO35xnz03z-87" value="status varchar(100) NOT NULL 状态" style="shape=partialRectangle;connectable=0;fillColor=none;top=0;left=0;bottom=0;right=0;align=left;spacingLeft=6;overflow=hidden;labelBackgroundColor=none;strokeColor=#D0CEE2;fontColor=#1A1A1A;rounded=1;" parent="4eFh2s2mqRWO35xnz03z-85" vertex="1">
          <mxGeometry x="30" width="290" height="30" as="geometry">
            <mxRectangle width="290" height="30" as="alternateBounds" />
          </mxGeometry>
        </mxCell>
        <mxCell id="4eFh2s2mqRWO35xnz03z-88" value="" style="shape=tableRow;horizontal=0;startSize=0;swimlaneHead=0;swimlaneBody=0;fillColor=none;collapsible=0;dropTarget=0;points=[[0,0.5],[1,0.5]];portConstraint=eastwest;top=0;left=0;right=0;bottom=0;labelBackgroundColor=none;strokeColor=#D0CEE2;fontColor=#1A1A1A;rounded=1;" parent="4eFh2s2mqRWO35xnz03z-72" vertex="1">
          <mxGeometry y="180" width="320" height="30" as="geometry" />
        </mxCell>
        <mxCell id="4eFh2s2mqRWO35xnz03z-89" value="" style="shape=partialRectangle;connectable=0;fillColor=none;top=0;left=0;bottom=0;right=0;editable=1;overflow=hidden;labelBackgroundColor=none;strokeColor=#D0CEE2;fontColor=#1A1A1A;rounded=1;" parent="4eFh2s2mqRWO35xnz03z-88" vertex="1">
          <mxGeometry width="30" height="30" as="geometry">
            <mxRectangle width="30" height="30" as="alternateBounds" />
          </mxGeometry>
        </mxCell>
        <mxCell id="4eFh2s2mqRWO35xnz03z-90" value="created_at timestamp NOT NULL now 创建时间" style="shape=partialRectangle;connectable=0;fillColor=none;top=0;left=0;bottom=0;right=0;align=left;spacingLeft=6;overflow=hidden;labelBackgroundColor=none;strokeColor=#D0CEE2;fontColor=#1A1A1A;rounded=1;" parent="4eFh2s2mqRWO35xnz03z-88" vertex="1">
          <mxGeometry x="30" width="290" height="30" as="geometry">
            <mxRectangle width="290" height="30" as="alternateBounds" />
          </mxGeometry>
        </mxCell>
        <mxCell id="4eFh2s2mqRWO35xnz03z-91" value="" style="shape=tableRow;horizontal=0;startSize=0;swimlaneHead=0;swimlaneBody=0;fillColor=none;collapsible=0;dropTarget=0;points=[[0,0.5],[1,0.5]];portConstraint=eastwest;top=0;left=0;right=0;bottom=0;labelBackgroundColor=none;strokeColor=#D0CEE2;fontColor=#1A1A1A;rounded=1;" parent="4eFh2s2mqRWO35xnz03z-72" vertex="1">
          <mxGeometry y="210" width="320" height="30" as="geometry" />
        </mxCell>
        <mxCell id="4eFh2s2mqRWO35xnz03z-92" value="" style="shape=partialRectangle;connectable=0;fillColor=none;top=0;left=0;bottom=0;right=0;editable=1;overflow=hidden;labelBackgroundColor=none;strokeColor=#D0CEE2;fontColor=#1A1A1A;rounded=1;" parent="4eFh2s2mqRWO35xnz03z-91" vertex="1">
          <mxGeometry width="30" height="30" as="geometry">
            <mxRectangle width="30" height="30" as="alternateBounds" />
          </mxGeometry>
        </mxCell>
        <mxCell id="4eFh2s2mqRWO35xnz03z-93" value="updated_at timestamp NOT NULL now 更新时间" style="shape=partialRectangle;connectable=0;fillColor=none;top=0;left=0;bottom=0;right=0;align=left;spacingLeft=6;overflow=hidden;labelBackgroundColor=none;strokeColor=#D0CEE2;fontColor=#1A1A1A;rounded=1;" parent="4eFh2s2mqRWO35xnz03z-91" vertex="1">
          <mxGeometry x="30" width="290" height="30" as="geometry">
            <mxRectangle width="290" height="30" as="alternateBounds" />
          </mxGeometry>
        </mxCell>
        <mxCell id="4eFh2s2mqRWO35xnz03z-94" value="" style="edgeStyle=entityRelationEdgeStyle;fontSize=12;html=1;endArrow=ERoneToMany;rounded=1;exitX=1;exitY=0.5;exitDx=0;exitDy=0;entryX=0;entryY=0.5;entryDx=0;entryDy=0;labelBackgroundColor=none;strokeColor=#736CA8;fontColor=default;" parent="1" source="4eFh2s2mqRWO35xnz03z-15" target="4eFh2s2mqRWO35xnz03z-76" edge="1">
          <mxGeometry width="100" height="100" relative="1" as="geometry">
            <mxPoint x="870" y="400" as="sourcePoint" />
            <mxPoint x="970" y="300" as="targetPoint" />
          </mxGeometry>
        </mxCell>
        <mxCell id="4eFh2s2mqRWO35xnz03z-96" value="conversation (会话表)" style="shape=table;startSize=30;container=1;collapsible=1;childLayout=tableLayout;fixedRows=1;rowLines=0;fontStyle=1;align=center;resizeLast=1;html=1;labelBackgroundColor=none;fillColor=#5D7F99;strokeColor=#D0CEE2;fontColor=#1A1A1A;rounded=1;" parent="1" vertex="1">
          <mxGeometry x="1040" y="160" width="320" height="210" as="geometry" />
        </mxCell>
        <mxCell id="4eFh2s2mqRWO35xnz03z-97" value="" style="shape=tableRow;horizontal=0;startSize=0;swimlaneHead=0;swimlaneBody=0;fillColor=none;collapsible=0;dropTarget=0;points=[[0,0.5],[1,0.5]];portConstraint=eastwest;top=0;left=0;right=0;bottom=1;labelBackgroundColor=none;strokeColor=#D0CEE2;fontColor=#1A1A1A;rounded=1;" parent="4eFh2s2mqRWO35xnz03z-96" vertex="1">
          <mxGeometry y="30" width="320" height="30" as="geometry" />
        </mxCell>
        <mxCell id="4eFh2s2mqRWO35xnz03z-98" value="PK" style="shape=partialRectangle;connectable=0;fillColor=none;top=0;left=0;bottom=0;right=0;fontStyle=1;overflow=hidden;whiteSpace=wrap;html=1;labelBackgroundColor=none;strokeColor=#D0CEE2;fontColor=#1A1A1A;rounded=1;" parent="4eFh2s2mqRWO35xnz03z-97" vertex="1">
          <mxGeometry width="30" height="30" as="geometry">
            <mxRectangle width="30" height="30" as="alternateBounds" />
          </mxGeometry>
        </mxCell>
        <mxCell id="4eFh2s2mqRWO35xnz03z-99" value="id uuid" style="shape=partialRectangle;connectable=0;fillColor=none;top=0;left=0;bottom=0;right=0;align=left;spacingLeft=6;fontStyle=5;overflow=hidden;whiteSpace=wrap;html=1;labelBackgroundColor=none;strokeColor=#D0CEE2;fontColor=#1A1A1A;rounded=1;" parent="4eFh2s2mqRWO35xnz03z-97" vertex="1">
          <mxGeometry x="30" width="290" height="30" as="geometry">
            <mxRectangle width="290" height="30" as="alternateBounds" />
          </mxGeometry>
        </mxCell>
        <mxCell id="4eFh2s2mqRWO35xnz03z-103" value="" style="shape=tableRow;horizontal=0;startSize=0;swimlaneHead=0;swimlaneBody=0;fillColor=none;collapsible=0;dropTarget=0;points=[[0,0.5],[1,0.5]];portConstraint=eastwest;top=0;left=0;right=0;bottom=0;labelBackgroundColor=none;strokeColor=#D0CEE2;fontColor=#1A1A1A;rounded=1;" parent="4eFh2s2mqRWO35xnz03z-96" vertex="1">
          <mxGeometry y="60" width="320" height="30" as="geometry" />
        </mxCell>
        <mxCell id="4eFh2s2mqRWO35xnz03z-104" value="IDX" style="shape=partialRectangle;connectable=0;fillColor=none;top=0;left=0;bottom=0;right=0;editable=1;overflow=hidden;whiteSpace=wrap;html=1;labelBackgroundColor=none;strokeColor=#D0CEE2;fontColor=#1A1A1A;rounded=1;" parent="4eFh2s2mqRWO35xnz03z-103" vertex="1">
          <mxGeometry width="30" height="30" as="geometry">
            <mxRectangle width="30" height="30" as="alternateBounds" />
          </mxGeometry>
        </mxCell>
        <mxCell id="4eFh2s2mqRWO35xnz03z-105" value="app_id uuid NOT NULL 应用ID" style="shape=partialRectangle;connectable=0;fillColor=none;top=0;left=0;bottom=0;right=0;align=left;spacingLeft=6;overflow=hidden;whiteSpace=wrap;html=1;labelBackgroundColor=none;strokeColor=#D0CEE2;fontColor=#1A1A1A;rounded=1;" parent="4eFh2s2mqRWO35xnz03z-103" vertex="1">
          <mxGeometry x="30" width="290" height="30" as="geometry">
            <mxRectangle width="290" height="30" as="alternateBounds" />
          </mxGeometry>
        </mxCell>
        <mxCell id="4eFh2s2mqRWO35xnz03z-100" value="" style="shape=tableRow;horizontal=0;startSize=0;swimlaneHead=0;swimlaneBody=0;fillColor=none;collapsible=0;dropTarget=0;points=[[0,0.5],[1,0.5]];portConstraint=eastwest;top=0;left=0;right=0;bottom=0;labelBackgroundColor=none;strokeColor=#D0CEE2;fontColor=#1A1A1A;rounded=1;" parent="4eFh2s2mqRWO35xnz03z-96" vertex="1">
          <mxGeometry y="90" width="320" height="30" as="geometry" />
        </mxCell>
        <mxCell id="4eFh2s2mqRWO35xnz03z-101" value="IDX" style="shape=partialRectangle;connectable=0;fillColor=none;top=0;left=0;bottom=0;right=0;editable=1;overflow=hidden;whiteSpace=wrap;html=1;labelBackgroundColor=none;strokeColor=#D0CEE2;fontColor=#1A1A1A;rounded=1;" parent="4eFh2s2mqRWO35xnz03z-100" vertex="1">
          <mxGeometry width="30" height="30" as="geometry">
            <mxRectangle width="30" height="30" as="alternateBounds" />
          </mxGeometry>
        </mxCell>
        <mxCell id="4eFh2s2mqRWO35xnz03z-102" value="account_id uuid NOT NULL 用户ID" style="shape=partialRectangle;connectable=0;fillColor=none;top=0;left=0;bottom=0;right=0;align=left;spacingLeft=6;overflow=hidden;whiteSpace=wrap;html=1;labelBackgroundColor=none;strokeColor=#D0CEE2;fontColor=#1A1A1A;rounded=1;" parent="4eFh2s2mqRWO35xnz03z-100" vertex="1">
          <mxGeometry x="30" width="290" height="30" as="geometry">
            <mxRectangle width="290" height="30" as="alternateBounds" />
          </mxGeometry>
        </mxCell>
        <mxCell id="4eFh2s2mqRWO35xnz03z-106" value="" style="shape=tableRow;horizontal=0;startSize=0;swimlaneHead=0;swimlaneBody=0;fillColor=none;collapsible=0;dropTarget=0;points=[[0,0.5],[1,0.5]];portConstraint=eastwest;top=0;left=0;right=0;bottom=0;labelBackgroundColor=none;strokeColor=#D0CEE2;fontColor=#1A1A1A;rounded=1;" parent="4eFh2s2mqRWO35xnz03z-96" vertex="1">
          <mxGeometry y="120" width="320" height="30" as="geometry" />
        </mxCell>
        <mxCell id="4eFh2s2mqRWO35xnz03z-107" value="" style="shape=partialRectangle;connectable=0;fillColor=none;top=0;left=0;bottom=0;right=0;editable=1;overflow=hidden;whiteSpace=wrap;html=1;labelBackgroundColor=none;strokeColor=#D0CEE2;fontColor=#1A1A1A;rounded=1;" parent="4eFh2s2mqRWO35xnz03z-106" vertex="1">
          <mxGeometry width="30" height="30" as="geometry">
            <mxRectangle width="30" height="30" as="alternateBounds" />
          </mxGeometry>
        </mxCell>
        <mxCell id="4eFh2s2mqRWO35xnz03z-108" value="summary text NOT NULL &quot;&quot; 摘要信息" style="shape=partialRectangle;connectable=0;fillColor=none;top=0;left=0;bottom=0;right=0;align=left;spacingLeft=6;overflow=hidden;whiteSpace=wrap;html=1;labelBackgroundColor=none;strokeColor=#D0CEE2;fontColor=#1A1A1A;rounded=1;" parent="4eFh2s2mqRWO35xnz03z-106" vertex="1">
          <mxGeometry x="30" width="290" height="30" as="geometry">
            <mxRectangle width="290" height="30" as="alternateBounds" />
          </mxGeometry>
        </mxCell>
        <mxCell id="4eFh2s2mqRWO35xnz03z-112" value="" style="shape=tableRow;horizontal=0;startSize=0;swimlaneHead=0;swimlaneBody=0;fillColor=none;collapsible=0;dropTarget=0;points=[[0,0.5],[1,0.5]];portConstraint=eastwest;top=0;left=0;right=0;bottom=0;labelBackgroundColor=none;strokeColor=#D0CEE2;fontColor=#1A1A1A;rounded=1;" parent="4eFh2s2mqRWO35xnz03z-96" vertex="1">
          <mxGeometry y="150" width="320" height="30" as="geometry" />
        </mxCell>
        <mxCell id="4eFh2s2mqRWO35xnz03z-113" value="" style="shape=partialRectangle;connectable=0;fillColor=none;top=0;left=0;bottom=0;right=0;editable=1;overflow=hidden;labelBackgroundColor=none;strokeColor=#D0CEE2;fontColor=#1A1A1A;rounded=1;" parent="4eFh2s2mqRWO35xnz03z-112" vertex="1">
          <mxGeometry width="30" height="30" as="geometry">
            <mxRectangle width="30" height="30" as="alternateBounds" />
          </mxGeometry>
        </mxCell>
        <mxCell id="4eFh2s2mqRWO35xnz03z-114" value="created_at timestamp NOT NULL now 创建时间" style="shape=partialRectangle;connectable=0;fillColor=none;top=0;left=0;bottom=0;right=0;align=left;spacingLeft=6;overflow=hidden;labelBackgroundColor=none;strokeColor=#D0CEE2;fontColor=#1A1A1A;rounded=1;" parent="4eFh2s2mqRWO35xnz03z-112" vertex="1">
          <mxGeometry x="30" width="290" height="30" as="geometry">
            <mxRectangle width="290" height="30" as="alternateBounds" />
          </mxGeometry>
        </mxCell>
        <mxCell id="4eFh2s2mqRWO35xnz03z-109" value="" style="shape=tableRow;horizontal=0;startSize=0;swimlaneHead=0;swimlaneBody=0;fillColor=none;collapsible=0;dropTarget=0;points=[[0,0.5],[1,0.5]];portConstraint=eastwest;top=0;left=0;right=0;bottom=0;labelBackgroundColor=none;strokeColor=#D0CEE2;fontColor=#1A1A1A;rounded=1;" parent="4eFh2s2mqRWO35xnz03z-96" vertex="1">
          <mxGeometry y="180" width="320" height="30" as="geometry" />
        </mxCell>
        <mxCell id="4eFh2s2mqRWO35xnz03z-110" value="" style="shape=partialRectangle;connectable=0;fillColor=none;top=0;left=0;bottom=0;right=0;editable=1;overflow=hidden;labelBackgroundColor=none;strokeColor=#D0CEE2;fontColor=#1A1A1A;rounded=1;" parent="4eFh2s2mqRWO35xnz03z-109" vertex="1">
          <mxGeometry width="30" height="30" as="geometry">
            <mxRectangle width="30" height="30" as="alternateBounds" />
          </mxGeometry>
        </mxCell>
        <mxCell id="4eFh2s2mqRWO35xnz03z-111" value="updated_at timestamp NOT NULL now 更新时间" style="shape=partialRectangle;connectable=0;fillColor=none;top=0;left=0;bottom=0;right=0;align=left;spacingLeft=6;overflow=hidden;labelBackgroundColor=none;strokeColor=#D0CEE2;fontColor=#1A1A1A;rounded=1;" parent="4eFh2s2mqRWO35xnz03z-109" vertex="1">
          <mxGeometry x="30" width="290" height="30" as="geometry">
            <mxRectangle width="290" height="30" as="alternateBounds" />
          </mxGeometry>
        </mxCell>
        <mxCell id="4eFh2s2mqRWO35xnz03z-115" value="" style="edgeStyle=entityRelationEdgeStyle;fontSize=12;html=1;endArrow=ERoneToMany;rounded=1;exitX=1;exitY=0.5;exitDx=0;exitDy=0;entryX=-0.012;entryY=0.303;entryDx=0;entryDy=0;entryPerimeter=0;labelBackgroundColor=none;strokeColor=#736CA8;fontColor=default;" parent="1" source="4eFh2s2mqRWO35xnz03z-2" target="4eFh2s2mqRWO35xnz03z-100" edge="1">
          <mxGeometry width="100" height="100" relative="1" as="geometry">
            <mxPoint x="650" y="310" as="sourcePoint" />
            <mxPoint x="750" y="210" as="targetPoint" />
          </mxGeometry>
        </mxCell>
        <mxCell id="4eFh2s2mqRWO35xnz03z-116" value="" style="edgeStyle=entityRelationEdgeStyle;fontSize=12;html=1;endArrow=ERoneToMany;rounded=1;exitX=1;exitY=0.5;exitDx=0;exitDy=0;entryX=0;entryY=0.5;entryDx=0;entryDy=0;labelBackgroundColor=none;strokeColor=#736CA8;fontColor=default;" parent="1" source="4eFh2s2mqRWO35xnz03z-15" target="4eFh2s2mqRWO35xnz03z-103" edge="1">
          <mxGeometry width="100" height="100" relative="1" as="geometry">
            <mxPoint x="900" y="280" as="sourcePoint" />
            <mxPoint x="1000" y="180" as="targetPoint" />
          </mxGeometry>
        </mxCell>
        <mxCell id="4eFh2s2mqRWO35xnz03z-147" value="" style="edgeStyle=entityRelationEdgeStyle;fontSize=12;html=1;endArrow=ERoneToMany;rounded=1;exitX=1;exitY=0.5;exitDx=0;exitDy=0;entryX=0;entryY=0.5;entryDx=0;entryDy=0;labelBackgroundColor=none;strokeColor=#736CA8;fontColor=default;" parent="1" source="4eFh2s2mqRWO35xnz03z-2" target="4eFh2s2mqRWO35xnz03z-126" edge="1">
          <mxGeometry width="100" height="100" relative="1" as="geometry">
            <mxPoint x="570" y="390" as="sourcePoint" />
            <mxPoint x="670" y="290" as="targetPoint" />
          </mxGeometry>
        </mxCell>
        <mxCell id="4eFh2s2mqRWO35xnz03z-148" value="" style="edgeStyle=entityRelationEdgeStyle;fontSize=12;html=1;endArrow=ERoneToMany;rounded=1;exitX=0;exitY=0.5;exitDx=0;exitDy=0;entryX=1;entryY=0.5;entryDx=0;entryDy=0;labelBackgroundColor=none;strokeColor=#736CA8;fontColor=default;" parent="1" source="4eFh2s2mqRWO35xnz03z-97" target="4eFh2s2mqRWO35xnz03z-123" edge="1">
          <mxGeometry width="100" height="100" relative="1" as="geometry">
            <mxPoint x="860" y="390" as="sourcePoint" />
            <mxPoint x="960" y="290" as="targetPoint" />
            <Array as="points">
              <mxPoint x="650" y="250" />
              <mxPoint x="690" y="300" />
              <mxPoint x="770" y="300" />
            </Array>
          </mxGeometry>
        </mxCell>
        <mxCell id="4eFh2s2mqRWO35xnz03z-152" value="" style="edgeStyle=entityRelationEdgeStyle;fontSize=12;html=1;endArrow=ERmandOne;startArrow=ERmandOne;rounded=1;strokeColor=#736CA8;fontColor=default;exitX=1;exitY=0.5;exitDx=0;exitDy=0;entryX=0;entryY=0.5;entryDx=0;entryDy=0;labelBackgroundColor=none;" parent="1" source="4eFh2s2mqRWO35xnz03z-46" target="4eFh2s2mqRWO35xnz03z-73" edge="1">
          <mxGeometry width="100" height="100" relative="1" as="geometry">
            <mxPoint x="800" y="150" as="sourcePoint" />
            <mxPoint x="900" y="50" as="targetPoint" />
          </mxGeometry>
        </mxCell>
        <mxCell id="4eFh2s2mqRWO35xnz03z-154" value="" style="edgeStyle=entityRelationEdgeStyle;fontSize=12;html=1;endArrow=ERmandOne;startArrow=ERmandOne;rounded=1;strokeColor=#736CA8;fontColor=default;exitX=1;exitY=0.5;exitDx=0;exitDy=0;entryX=0;entryY=0.5;entryDx=0;entryDy=0;labelBackgroundColor=none;" parent="1" source="4eFh2s2mqRWO35xnz03z-49" target="4eFh2s2mqRWO35xnz03z-73" edge="1">
          <mxGeometry width="100" height="100" relative="1" as="geometry">
            <mxPoint x="800" y="150" as="sourcePoint" />
            <mxPoint x="900" y="50" as="targetPoint" />
          </mxGeometry>
        </mxCell>
        <mxCell id="4eFh2s2mqRWO35xnz03z-155" value="" style="edgeStyle=entityRelationEdgeStyle;fontSize=12;html=1;endArrow=ERmandOne;startArrow=ERmandOne;rounded=1;strokeColor=#736CA8;fontColor=default;entryX=1;entryY=0.5;entryDx=0;entryDy=0;exitX=0;exitY=0.5;exitDx=0;exitDy=0;labelBackgroundColor=none;" parent="1" source="4eFh2s2mqRWO35xnz03z-97" target="4eFh2s2mqRWO35xnz03z-149" edge="1">
          <mxGeometry width="100" height="100" relative="1" as="geometry">
            <mxPoint x="800" y="230" as="sourcePoint" />
            <mxPoint x="900" y="130" as="targetPoint" />
          </mxGeometry>
        </mxCell>
        <mxCell id="yF1Oe0NCUgGeJrivjAx0-1" value="api_tool_provider (API工具提供者)" style="shape=table;startSize=30;container=1;collapsible=1;childLayout=tableLayout;fixedRows=1;rowLines=0;fontStyle=1;align=center;resizeLast=1;html=1;labelBackgroundColor=none;fillColor=#5D7F99;strokeColor=#D0CEE2;fontColor=#1A1A1A;rounded=1;" vertex="1" parent="1">
          <mxGeometry x="280" y="810" width="320" height="310" as="geometry" />
        </mxCell>
        <mxCell id="yF1Oe0NCUgGeJrivjAx0-2" value="" style="shape=tableRow;horizontal=0;startSize=0;swimlaneHead=0;swimlaneBody=0;fillColor=none;collapsible=0;dropTarget=0;points=[[0,0.5],[1,0.5]];portConstraint=eastwest;top=0;left=0;right=0;bottom=1;labelBackgroundColor=none;strokeColor=#D0CEE2;fontColor=#1A1A1A;rounded=1;" vertex="1" parent="yF1Oe0NCUgGeJrivjAx0-1">
          <mxGeometry y="30" width="320" height="30" as="geometry" />
        </mxCell>
        <mxCell id="yF1Oe0NCUgGeJrivjAx0-3" value="PK" style="shape=partialRectangle;connectable=0;fillColor=none;top=0;left=0;bottom=0;right=0;fontStyle=1;overflow=hidden;whiteSpace=wrap;html=1;labelBackgroundColor=none;strokeColor=#D0CEE2;fontColor=#1A1A1A;rounded=1;" vertex="1" parent="yF1Oe0NCUgGeJrivjAx0-2">
          <mxGeometry width="30" height="30" as="geometry">
            <mxRectangle width="30" height="30" as="alternateBounds" />
          </mxGeometry>
        </mxCell>
        <mxCell id="yF1Oe0NCUgGeJrivjAx0-4" value="id uuid" style="shape=partialRectangle;connectable=0;fillColor=none;top=0;left=0;bottom=0;right=0;align=left;spacingLeft=6;fontStyle=5;overflow=hidden;whiteSpace=wrap;html=1;labelBackgroundColor=none;strokeColor=#D0CEE2;fontColor=#1A1A1A;rounded=1;" vertex="1" parent="yF1Oe0NCUgGeJrivjAx0-2">
          <mxGeometry x="30" width="290" height="30" as="geometry">
            <mxRectangle width="290" height="30" as="alternateBounds" />
          </mxGeometry>
        </mxCell>
        <mxCell id="yF1Oe0NCUgGeJrivjAx0-5" value="" style="shape=tableRow;horizontal=0;startSize=0;swimlaneHead=0;swimlaneBody=0;fillColor=none;collapsible=0;dropTarget=0;points=[[0,0.5],[1,0.5]];portConstraint=eastwest;top=0;left=0;right=0;bottom=0;labelBackgroundColor=none;strokeColor=#D0CEE2;fontColor=#1A1A1A;rounded=1;" vertex="1" parent="yF1Oe0NCUgGeJrivjAx0-1">
          <mxGeometry y="60" width="320" height="40" as="geometry" />
        </mxCell>
        <mxCell id="yF1Oe0NCUgGeJrivjAx0-6" value="UK1 IDX" style="shape=partialRectangle;connectable=0;fillColor=none;top=0;left=0;bottom=0;right=0;editable=1;overflow=hidden;whiteSpace=wrap;html=1;labelBackgroundColor=none;strokeColor=#D0CEE2;fontColor=#1A1A1A;rounded=1;" vertex="1" parent="yF1Oe0NCUgGeJrivjAx0-5">
          <mxGeometry width="30" height="40" as="geometry">
            <mxRectangle width="30" height="40" as="alternateBounds" />
          </mxGeometry>
        </mxCell>
        <mxCell id="yF1Oe0NCUgGeJrivjAx0-7" value="account_id uuid NOT NULL 用户ID" style="shape=partialRectangle;connectable=0;fillColor=none;top=0;left=0;bottom=0;right=0;align=left;spacingLeft=6;overflow=hidden;whiteSpace=wrap;html=1;labelBackgroundColor=none;strokeColor=#D0CEE2;fontColor=#1A1A1A;rounded=1;" vertex="1" parent="yF1Oe0NCUgGeJrivjAx0-5">
          <mxGeometry x="30" width="290" height="40" as="geometry">
            <mxRectangle width="290" height="40" as="alternateBounds" />
          </mxGeometry>
        </mxCell>
        <mxCell id="yF1Oe0NCUgGeJrivjAx0-8" value="" style="shape=tableRow;horizontal=0;startSize=0;swimlaneHead=0;swimlaneBody=0;fillColor=none;collapsible=0;dropTarget=0;points=[[0,0.5],[1,0.5]];portConstraint=eastwest;top=0;left=0;right=0;bottom=0;labelBackgroundColor=none;strokeColor=#D0CEE2;fontColor=#1A1A1A;rounded=1;" vertex="1" parent="yF1Oe0NCUgGeJrivjAx0-1">
          <mxGeometry y="100" width="320" height="30" as="geometry" />
        </mxCell>
        <mxCell id="yF1Oe0NCUgGeJrivjAx0-9" value="UK1" style="shape=partialRectangle;connectable=0;fillColor=none;top=0;left=0;bottom=0;right=0;editable=1;overflow=hidden;whiteSpace=wrap;html=1;labelBackgroundColor=none;strokeColor=#D0CEE2;fontColor=#1A1A1A;rounded=1;" vertex="1" parent="yF1Oe0NCUgGeJrivjAx0-8">
          <mxGeometry width="30" height="30" as="geometry">
            <mxRectangle width="30" height="30" as="alternateBounds" />
          </mxGeometry>
        </mxCell>
        <mxCell id="yF1Oe0NCUgGeJrivjAx0-10" value="name varchar(255) NOT NULL “” 提供商名称" style="shape=partialRectangle;connectable=0;fillColor=none;top=0;left=0;bottom=0;right=0;align=left;spacingLeft=6;overflow=hidden;whiteSpace=wrap;html=1;labelBackgroundColor=none;strokeColor=#D0CEE2;fontColor=#1A1A1A;rounded=1;" vertex="1" parent="yF1Oe0NCUgGeJrivjAx0-8">
          <mxGeometry x="30" width="290" height="30" as="geometry">
            <mxRectangle width="290" height="30" as="alternateBounds" />
          </mxGeometry>
        </mxCell>
        <mxCell id="yF1Oe0NCUgGeJrivjAx0-11" value="" style="shape=tableRow;horizontal=0;startSize=0;swimlaneHead=0;swimlaneBody=0;fillColor=none;collapsible=0;dropTarget=0;points=[[0,0.5],[1,0.5]];portConstraint=eastwest;top=0;left=0;right=0;bottom=0;labelBackgroundColor=none;strokeColor=#D0CEE2;fontColor=#1A1A1A;rounded=1;" vertex="1" parent="yF1Oe0NCUgGeJrivjAx0-1">
          <mxGeometry y="130" width="320" height="30" as="geometry" />
        </mxCell>
        <mxCell id="yF1Oe0NCUgGeJrivjAx0-12" value="" style="shape=partialRectangle;connectable=0;fillColor=none;top=0;left=0;bottom=0;right=0;editable=1;overflow=hidden;whiteSpace=wrap;html=1;labelBackgroundColor=none;strokeColor=#D0CEE2;fontColor=#1A1A1A;rounded=1;" vertex="1" parent="yF1Oe0NCUgGeJrivjAx0-11">
          <mxGeometry width="30" height="30" as="geometry">
            <mxRectangle width="30" height="30" as="alternateBounds" />
          </mxGeometry>
        </mxCell>
        <mxCell id="yF1Oe0NCUgGeJrivjAx0-13" value="icon varchar(255) NOT NULL &quot;&quot; 提供商图标" style="shape=partialRectangle;connectable=0;fillColor=none;top=0;left=0;bottom=0;right=0;align=left;spacingLeft=6;overflow=hidden;whiteSpace=wrap;html=1;labelBackgroundColor=none;strokeColor=#D0CEE2;fontColor=#1A1A1A;rounded=1;" vertex="1" parent="yF1Oe0NCUgGeJrivjAx0-11">
          <mxGeometry x="30" width="290" height="30" as="geometry">
            <mxRectangle width="290" height="30" as="alternateBounds" />
          </mxGeometry>
        </mxCell>
        <mxCell id="yF1Oe0NCUgGeJrivjAx0-14" value="" style="shape=tableRow;horizontal=0;startSize=0;swimlaneHead=0;swimlaneBody=0;fillColor=none;collapsible=0;dropTarget=0;points=[[0,0.5],[1,0.5]];portConstraint=eastwest;top=0;left=0;right=0;bottom=0;rounded=1;strokeColor=#D0CEE2;fontColor=#1A1A1A;" vertex="1" parent="yF1Oe0NCUgGeJrivjAx0-1">
          <mxGeometry y="160" width="320" height="30" as="geometry" />
        </mxCell>
        <mxCell id="yF1Oe0NCUgGeJrivjAx0-15" value="" style="shape=partialRectangle;connectable=0;fillColor=none;top=0;left=0;bottom=0;right=0;editable=1;overflow=hidden;rounded=1;strokeColor=#D0CEE2;fontColor=#1A1A1A;" vertex="1" parent="yF1Oe0NCUgGeJrivjAx0-14">
          <mxGeometry width="30" height="30" as="geometry">
            <mxRectangle width="30" height="30" as="alternateBounds" />
          </mxGeometry>
        </mxCell>
        <mxCell id="yF1Oe0NCUgGeJrivjAx0-16" value="description text NOT NULL &quot;&quot; 提供商描述" style="shape=partialRectangle;connectable=0;fillColor=none;top=0;left=0;bottom=0;right=0;align=left;spacingLeft=6;overflow=hidden;rounded=1;strokeColor=#D0CEE2;fontColor=#1A1A1A;" vertex="1" parent="yF1Oe0NCUgGeJrivjAx0-14">
          <mxGeometry x="30" width="290" height="30" as="geometry">
            <mxRectangle width="290" height="30" as="alternateBounds" />
          </mxGeometry>
        </mxCell>
        <mxCell id="yF1Oe0NCUgGeJrivjAx0-17" value="" style="shape=tableRow;horizontal=0;startSize=0;swimlaneHead=0;swimlaneBody=0;fillColor=none;collapsible=0;dropTarget=0;points=[[0,0.5],[1,0.5]];portConstraint=eastwest;top=0;left=0;right=0;bottom=0;rounded=1;strokeColor=#D0CEE2;fontColor=#1A1A1A;" vertex="1" parent="yF1Oe0NCUgGeJrivjAx0-1">
          <mxGeometry y="190" width="320" height="30" as="geometry" />
        </mxCell>
        <mxCell id="yF1Oe0NCUgGeJrivjAx0-18" value="" style="shape=partialRectangle;connectable=0;fillColor=none;top=0;left=0;bottom=0;right=0;editable=1;overflow=hidden;rounded=1;strokeColor=#D0CEE2;fontColor=#1A1A1A;" vertex="1" parent="yF1Oe0NCUgGeJrivjAx0-17">
          <mxGeometry width="30" height="30" as="geometry">
            <mxRectangle width="30" height="30" as="alternateBounds" />
          </mxGeometry>
        </mxCell>
        <mxCell id="yF1Oe0NCUgGeJrivjAx0-19" value="openapi_schema JSON NOT NULL 规范描述" style="shape=partialRectangle;connectable=0;fillColor=none;top=0;left=0;bottom=0;right=0;align=left;spacingLeft=6;overflow=hidden;rounded=1;strokeColor=#D0CEE2;fontColor=#1A1A1A;" vertex="1" parent="yF1Oe0NCUgGeJrivjAx0-17">
          <mxGeometry x="30" width="290" height="30" as="geometry">
            <mxRectangle width="290" height="30" as="alternateBounds" />
          </mxGeometry>
        </mxCell>
        <mxCell id="yF1Oe0NCUgGeJrivjAx0-20" value="" style="shape=tableRow;horizontal=0;startSize=0;swimlaneHead=0;swimlaneBody=0;fillColor=none;collapsible=0;dropTarget=0;points=[[0,0.5],[1,0.5]];portConstraint=eastwest;top=0;left=0;right=0;bottom=0;rounded=1;strokeColor=#D0CEE2;fontColor=#1A1A1A;" vertex="1" parent="yF1Oe0NCUgGeJrivjAx0-1">
          <mxGeometry y="220" width="320" height="30" as="geometry" />
        </mxCell>
        <mxCell id="yF1Oe0NCUgGeJrivjAx0-21" value="" style="shape=partialRectangle;connectable=0;fillColor=none;top=0;left=0;bottom=0;right=0;editable=1;overflow=hidden;rounded=1;strokeColor=#D0CEE2;fontColor=#1A1A1A;" vertex="1" parent="yF1Oe0NCUgGeJrivjAx0-20">
          <mxGeometry width="30" height="30" as="geometry">
            <mxRectangle width="30" height="30" as="alternateBounds" />
          </mxGeometry>
        </mxCell>
        <mxCell id="yF1Oe0NCUgGeJrivjAx0-22" value="headers JSON NOT NULL 请求头" style="shape=partialRectangle;connectable=0;fillColor=none;top=0;left=0;bottom=0;right=0;align=left;spacingLeft=6;overflow=hidden;rounded=1;strokeColor=#D0CEE2;fontColor=#1A1A1A;" vertex="1" parent="yF1Oe0NCUgGeJrivjAx0-20">
          <mxGeometry x="30" width="290" height="30" as="geometry">
            <mxRectangle width="290" height="30" as="alternateBounds" />
          </mxGeometry>
        </mxCell>
        <mxCell id="yF1Oe0NCUgGeJrivjAx0-23" value="" style="shape=tableRow;horizontal=0;startSize=0;swimlaneHead=0;swimlaneBody=0;fillColor=none;collapsible=0;dropTarget=0;points=[[0,0.5],[1,0.5]];portConstraint=eastwest;top=0;left=0;right=0;bottom=0;rounded=1;strokeColor=#D0CEE2;fontColor=#1A1A1A;" vertex="1" parent="yF1Oe0NCUgGeJrivjAx0-1">
          <mxGeometry y="250" width="320" height="30" as="geometry" />
        </mxCell>
        <mxCell id="yF1Oe0NCUgGeJrivjAx0-24" value="" style="shape=partialRectangle;connectable=0;fillColor=none;top=0;left=0;bottom=0;right=0;editable=1;overflow=hidden;rounded=1;strokeColor=#D0CEE2;fontColor=#1A1A1A;" vertex="1" parent="yF1Oe0NCUgGeJrivjAx0-23">
          <mxGeometry width="30" height="30" as="geometry">
            <mxRectangle width="30" height="30" as="alternateBounds" />
          </mxGeometry>
        </mxCell>
        <mxCell id="yF1Oe0NCUgGeJrivjAx0-25" value="created_at timestamp NOT NULL now 创建时间" style="shape=partialRectangle;connectable=0;fillColor=none;top=0;left=0;bottom=0;right=0;align=left;spacingLeft=6;overflow=hidden;rounded=1;strokeColor=#D0CEE2;fontColor=#1A1A1A;" vertex="1" parent="yF1Oe0NCUgGeJrivjAx0-23">
          <mxGeometry x="30" width="290" height="30" as="geometry">
            <mxRectangle width="290" height="30" as="alternateBounds" />
          </mxGeometry>
        </mxCell>
        <mxCell id="yF1Oe0NCUgGeJrivjAx0-26" value="" style="shape=tableRow;horizontal=0;startSize=0;swimlaneHead=0;swimlaneBody=0;fillColor=none;collapsible=0;dropTarget=0;points=[[0,0.5],[1,0.5]];portConstraint=eastwest;top=0;left=0;right=0;bottom=0;rounded=1;strokeColor=#D0CEE2;fontColor=#1A1A1A;" vertex="1" parent="yF1Oe0NCUgGeJrivjAx0-1">
          <mxGeometry y="280" width="320" height="30" as="geometry" />
        </mxCell>
        <mxCell id="yF1Oe0NCUgGeJrivjAx0-27" value="" style="shape=partialRectangle;connectable=0;fillColor=none;top=0;left=0;bottom=0;right=0;editable=1;overflow=hidden;rounded=1;strokeColor=#D0CEE2;fontColor=#1A1A1A;" vertex="1" parent="yF1Oe0NCUgGeJrivjAx0-26">
          <mxGeometry width="30" height="30" as="geometry">
            <mxRectangle width="30" height="30" as="alternateBounds" />
          </mxGeometry>
        </mxCell>
        <mxCell id="yF1Oe0NCUgGeJrivjAx0-28" value="updated_at timestamp NOT NULL now 更新时间" style="shape=partialRectangle;connectable=0;fillColor=none;top=0;left=0;bottom=0;right=0;align=left;spacingLeft=6;overflow=hidden;rounded=1;strokeColor=#D0CEE2;fontColor=#1A1A1A;" vertex="1" parent="yF1Oe0NCUgGeJrivjAx0-26">
          <mxGeometry x="30" width="290" height="30" as="geometry">
            <mxRectangle width="290" height="30" as="alternateBounds" />
          </mxGeometry>
        </mxCell>
        <mxCell id="yF1Oe0NCUgGeJrivjAx0-29" value="" style="edgeStyle=entityRelationEdgeStyle;fontSize=12;html=1;endArrow=ERoneToMany;rounded=1;strokeColor=#736CA8;fontColor=#1A1A1A;exitX=1;exitY=0.5;exitDx=0;exitDy=0;entryX=0;entryY=0.5;entryDx=0;entryDy=0;" edge="1" parent="1" source="4eFh2s2mqRWO35xnz03z-2" target="yF1Oe0NCUgGeJrivjAx0-5">
          <mxGeometry width="100" height="100" relative="1" as="geometry">
            <mxPoint x="690" y="400" as="sourcePoint" />
            <mxPoint x="790" y="300" as="targetPoint" />
          </mxGeometry>
        </mxCell>
        <mxCell id="yF1Oe0NCUgGeJrivjAx0-30" value="api_tool (API 工具表)" style="shape=table;startSize=30;container=1;collapsible=1;childLayout=tableLayout;fixedRows=1;rowLines=0;fontStyle=1;align=center;resizeLast=1;html=1;rounded=1;strokeColor=#D0CEE2;fontColor=#1A1A1A;fillColor=#5D7F99;" vertex="1" parent="1">
          <mxGeometry x="760" y="810" width="320" height="330" as="geometry" />
        </mxCell>
        <mxCell id="yF1Oe0NCUgGeJrivjAx0-31" value="" style="shape=tableRow;horizontal=0;startSize=0;swimlaneHead=0;swimlaneBody=0;fillColor=none;collapsible=0;dropTarget=0;points=[[0,0.5],[1,0.5]];portConstraint=eastwest;top=0;left=0;right=0;bottom=1;rounded=1;strokeColor=#D0CEE2;fontColor=#1A1A1A;" vertex="1" parent="yF1Oe0NCUgGeJrivjAx0-30">
          <mxGeometry y="30" width="320" height="30" as="geometry" />
        </mxCell>
        <mxCell id="yF1Oe0NCUgGeJrivjAx0-32" value="PK" style="shape=partialRectangle;connectable=0;fillColor=none;top=0;left=0;bottom=0;right=0;fontStyle=1;overflow=hidden;whiteSpace=wrap;html=1;rounded=1;strokeColor=#D0CEE2;fontColor=#1A1A1A;" vertex="1" parent="yF1Oe0NCUgGeJrivjAx0-31">
          <mxGeometry width="30" height="30" as="geometry">
            <mxRectangle width="30" height="30" as="alternateBounds" />
          </mxGeometry>
        </mxCell>
        <mxCell id="yF1Oe0NCUgGeJrivjAx0-33" value="id uuid" style="shape=partialRectangle;connectable=0;fillColor=none;top=0;left=0;bottom=0;right=0;align=left;spacingLeft=6;fontStyle=5;overflow=hidden;whiteSpace=wrap;html=1;rounded=1;strokeColor=#D0CEE2;fontColor=#1A1A1A;" vertex="1" parent="yF1Oe0NCUgGeJrivjAx0-31">
          <mxGeometry x="30" width="290" height="30" as="geometry">
            <mxRectangle width="290" height="30" as="alternateBounds" />
          </mxGeometry>
        </mxCell>
        <mxCell id="yF1Oe0NCUgGeJrivjAx0-34" value="" style="shape=tableRow;horizontal=0;startSize=0;swimlaneHead=0;swimlaneBody=0;fillColor=none;collapsible=0;dropTarget=0;points=[[0,0.5],[1,0.5]];portConstraint=eastwest;top=0;left=0;right=0;bottom=0;rounded=1;strokeColor=#D0CEE2;fontColor=#1A1A1A;" vertex="1" parent="yF1Oe0NCUgGeJrivjAx0-30">
          <mxGeometry y="60" width="320" height="30" as="geometry" />
        </mxCell>
        <mxCell id="yF1Oe0NCUgGeJrivjAx0-35" value="IDX" style="shape=partialRectangle;connectable=0;fillColor=none;top=0;left=0;bottom=0;right=0;editable=1;overflow=hidden;whiteSpace=wrap;html=1;rounded=1;strokeColor=#D0CEE2;fontColor=#1A1A1A;" vertex="1" parent="yF1Oe0NCUgGeJrivjAx0-34">
          <mxGeometry width="30" height="30" as="geometry">
            <mxRectangle width="30" height="30" as="alternateBounds" />
          </mxGeometry>
        </mxCell>
        <mxCell id="yF1Oe0NCUgGeJrivjAx0-36" value="account_id uuid NOT NULL 用户ID" style="shape=partialRectangle;connectable=0;fillColor=none;top=0;left=0;bottom=0;right=0;align=left;spacingLeft=6;overflow=hidden;whiteSpace=wrap;html=1;rounded=1;strokeColor=#D0CEE2;fontColor=#1A1A1A;" vertex="1" parent="yF1Oe0NCUgGeJrivjAx0-34">
          <mxGeometry x="30" width="290" height="30" as="geometry">
            <mxRectangle width="290" height="30" as="alternateBounds" />
          </mxGeometry>
        </mxCell>
        <mxCell id="yF1Oe0NCUgGeJrivjAx0-37" value="" style="shape=tableRow;horizontal=0;startSize=0;swimlaneHead=0;swimlaneBody=0;fillColor=none;collapsible=0;dropTarget=0;points=[[0,0.5],[1,0.5]];portConstraint=eastwest;top=0;left=0;right=0;bottom=0;rounded=1;strokeColor=#D0CEE2;fontColor=#1A1A1A;" vertex="1" parent="yF1Oe0NCUgGeJrivjAx0-30">
          <mxGeometry y="90" width="320" height="30" as="geometry" />
        </mxCell>
        <mxCell id="yF1Oe0NCUgGeJrivjAx0-38" value="IDX" style="shape=partialRectangle;connectable=0;fillColor=none;top=0;left=0;bottom=0;right=0;editable=1;overflow=hidden;whiteSpace=wrap;html=1;rounded=1;strokeColor=#D0CEE2;fontColor=#1A1A1A;" vertex="1" parent="yF1Oe0NCUgGeJrivjAx0-37">
          <mxGeometry width="30" height="30" as="geometry">
            <mxRectangle width="30" height="30" as="alternateBounds" />
          </mxGeometry>
        </mxCell>
        <mxCell id="yF1Oe0NCUgGeJrivjAx0-39" value="provider_id uuid NOT NULL 提供商ID" style="shape=partialRectangle;connectable=0;fillColor=none;top=0;left=0;bottom=0;right=0;align=left;spacingLeft=6;overflow=hidden;whiteSpace=wrap;html=1;rounded=1;strokeColor=#D0CEE2;fontColor=#1A1A1A;" vertex="1" parent="yF1Oe0NCUgGeJrivjAx0-37">
          <mxGeometry x="30" width="290" height="30" as="geometry">
            <mxRectangle width="290" height="30" as="alternateBounds" />
          </mxGeometry>
        </mxCell>
        <mxCell id="yF1Oe0NCUgGeJrivjAx0-40" value="" style="shape=tableRow;horizontal=0;startSize=0;swimlaneHead=0;swimlaneBody=0;fillColor=none;collapsible=0;dropTarget=0;points=[[0,0.5],[1,0.5]];portConstraint=eastwest;top=0;left=0;right=0;bottom=0;rounded=1;strokeColor=#D0CEE2;fontColor=#1A1A1A;" vertex="1" parent="yF1Oe0NCUgGeJrivjAx0-30">
          <mxGeometry y="120" width="320" height="30" as="geometry" />
        </mxCell>
        <mxCell id="yF1Oe0NCUgGeJrivjAx0-41" value="IDX" style="shape=partialRectangle;connectable=0;fillColor=none;top=0;left=0;bottom=0;right=0;editable=1;overflow=hidden;whiteSpace=wrap;html=1;rounded=1;strokeColor=#D0CEE2;fontColor=#1A1A1A;" vertex="1" parent="yF1Oe0NCUgGeJrivjAx0-40">
          <mxGeometry width="30" height="30" as="geometry">
            <mxRectangle width="30" height="30" as="alternateBounds" />
          </mxGeometry>
        </mxCell>
        <mxCell id="yF1Oe0NCUgGeJrivjAx0-42" value="name varchar(255) NOT NULL &quot;&quot; 工具名称" style="shape=partialRectangle;connectable=0;fillColor=none;top=0;left=0;bottom=0;right=0;align=left;spacingLeft=6;overflow=hidden;whiteSpace=wrap;html=1;rounded=1;strokeColor=#D0CEE2;fontColor=#1A1A1A;" vertex="1" parent="yF1Oe0NCUgGeJrivjAx0-40">
          <mxGeometry x="30" width="290" height="30" as="geometry">
            <mxRectangle width="290" height="30" as="alternateBounds" />
          </mxGeometry>
        </mxCell>
        <mxCell id="yF1Oe0NCUgGeJrivjAx0-43" value="" style="shape=tableRow;horizontal=0;startSize=0;swimlaneHead=0;swimlaneBody=0;fillColor=none;collapsible=0;dropTarget=0;points=[[0,0.5],[1,0.5]];portConstraint=eastwest;top=0;left=0;right=0;bottom=0;rounded=1;strokeColor=#D0CEE2;fontColor=#1A1A1A;" vertex="1" parent="yF1Oe0NCUgGeJrivjAx0-30">
          <mxGeometry y="150" width="320" height="30" as="geometry" />
        </mxCell>
        <mxCell id="yF1Oe0NCUgGeJrivjAx0-44" value="" style="shape=partialRectangle;connectable=0;fillColor=none;top=0;left=0;bottom=0;right=0;editable=1;overflow=hidden;rounded=1;strokeColor=#D0CEE2;fontColor=#1A1A1A;" vertex="1" parent="yF1Oe0NCUgGeJrivjAx0-43">
          <mxGeometry width="30" height="30" as="geometry">
            <mxRectangle width="30" height="30" as="alternateBounds" />
          </mxGeometry>
        </mxCell>
        <mxCell id="yF1Oe0NCUgGeJrivjAx0-45" value="description text NOT NULL &quot;&quot; 工具描述" style="shape=partialRectangle;connectable=0;fillColor=none;top=0;left=0;bottom=0;right=0;align=left;spacingLeft=6;overflow=hidden;rounded=1;strokeColor=#D0CEE2;fontColor=#1A1A1A;" vertex="1" parent="yF1Oe0NCUgGeJrivjAx0-43">
          <mxGeometry x="30" width="290" height="30" as="geometry">
            <mxRectangle width="290" height="30" as="alternateBounds" />
          </mxGeometry>
        </mxCell>
        <mxCell id="yF1Oe0NCUgGeJrivjAx0-46" value="" style="shape=tableRow;horizontal=0;startSize=0;swimlaneHead=0;swimlaneBody=0;fillColor=none;collapsible=0;dropTarget=0;points=[[0,0.5],[1,0.5]];portConstraint=eastwest;top=0;left=0;right=0;bottom=0;rounded=1;strokeColor=#D0CEE2;fontColor=#1A1A1A;" vertex="1" parent="yF1Oe0NCUgGeJrivjAx0-30">
          <mxGeometry y="180" width="320" height="30" as="geometry" />
        </mxCell>
        <mxCell id="yF1Oe0NCUgGeJrivjAx0-47" value="" style="shape=partialRectangle;connectable=0;fillColor=none;top=0;left=0;bottom=0;right=0;editable=1;overflow=hidden;rounded=1;strokeColor=#D0CEE2;fontColor=#1A1A1A;" vertex="1" parent="yF1Oe0NCUgGeJrivjAx0-46">
          <mxGeometry width="30" height="30" as="geometry">
            <mxRectangle width="30" height="30" as="alternateBounds" />
          </mxGeometry>
        </mxCell>
        <mxCell id="yF1Oe0NCUgGeJrivjAx0-48" value="url varchar(255) NOT NULL &quot;&quot; 工具API地址" style="shape=partialRectangle;connectable=0;fillColor=none;top=0;left=0;bottom=0;right=0;align=left;spacingLeft=6;overflow=hidden;rounded=1;strokeColor=#D0CEE2;fontColor=#1A1A1A;" vertex="1" parent="yF1Oe0NCUgGeJrivjAx0-46">
          <mxGeometry x="30" width="290" height="30" as="geometry">
            <mxRectangle width="290" height="30" as="alternateBounds" />
          </mxGeometry>
        </mxCell>
        <mxCell id="yF1Oe0NCUgGeJrivjAx0-49" value="" style="shape=tableRow;horizontal=0;startSize=0;swimlaneHead=0;swimlaneBody=0;fillColor=none;collapsible=0;dropTarget=0;points=[[0,0.5],[1,0.5]];portConstraint=eastwest;top=0;left=0;right=0;bottom=0;rounded=1;strokeColor=#D0CEE2;fontColor=#1A1A1A;" vertex="1" parent="yF1Oe0NCUgGeJrivjAx0-30">
          <mxGeometry y="210" width="320" height="30" as="geometry" />
        </mxCell>
        <mxCell id="yF1Oe0NCUgGeJrivjAx0-50" value="" style="shape=partialRectangle;connectable=0;fillColor=none;top=0;left=0;bottom=0;right=0;editable=1;overflow=hidden;rounded=1;strokeColor=#D0CEE2;fontColor=#1A1A1A;" vertex="1" parent="yF1Oe0NCUgGeJrivjAx0-49">
          <mxGeometry width="30" height="30" as="geometry">
            <mxRectangle width="30" height="30" as="alternateBounds" />
          </mxGeometry>
        </mxCell>
        <mxCell id="yF1Oe0NCUgGeJrivjAx0-51" value="method varchar(255) NOT NULL &quot;&quot; 路由方法" style="shape=partialRectangle;connectable=0;fillColor=none;top=0;left=0;bottom=0;right=0;align=left;spacingLeft=6;overflow=hidden;rounded=1;strokeColor=#D0CEE2;fontColor=#1A1A1A;" vertex="1" parent="yF1Oe0NCUgGeJrivjAx0-49">
          <mxGeometry x="30" width="290" height="30" as="geometry">
            <mxRectangle width="290" height="30" as="alternateBounds" />
          </mxGeometry>
        </mxCell>
        <mxCell id="yF1Oe0NCUgGeJrivjAx0-64" value="" style="shape=tableRow;horizontal=0;startSize=0;swimlaneHead=0;swimlaneBody=0;fillColor=none;collapsible=0;dropTarget=0;points=[[0,0.5],[1,0.5]];portConstraint=eastwest;top=0;left=0;right=0;bottom=0;rounded=1;strokeColor=#D0CEE2;fontColor=#1A1A1A;" vertex="1" parent="yF1Oe0NCUgGeJrivjAx0-30">
          <mxGeometry y="240" width="320" height="30" as="geometry" />
        </mxCell>
        <mxCell id="yF1Oe0NCUgGeJrivjAx0-65" value="" style="shape=partialRectangle;connectable=0;fillColor=none;top=0;left=0;bottom=0;right=0;editable=1;overflow=hidden;rounded=1;strokeColor=#D0CEE2;fontColor=#1A1A1A;" vertex="1" parent="yF1Oe0NCUgGeJrivjAx0-64">
          <mxGeometry width="30" height="30" as="geometry">
            <mxRectangle width="30" height="30" as="alternateBounds" />
          </mxGeometry>
        </mxCell>
        <mxCell id="yF1Oe0NCUgGeJrivjAx0-66" value="parameters JSON NOT NULL [] 工具参数" style="shape=partialRectangle;connectable=0;fillColor=none;top=0;left=0;bottom=0;right=0;align=left;spacingLeft=6;overflow=hidden;rounded=1;strokeColor=#D0CEE2;fontColor=#1A1A1A;" vertex="1" parent="yF1Oe0NCUgGeJrivjAx0-64">
          <mxGeometry x="30" width="290" height="30" as="geometry">
            <mxRectangle width="290" height="30" as="alternateBounds" />
          </mxGeometry>
        </mxCell>
        <mxCell id="yF1Oe0NCUgGeJrivjAx0-67" value="" style="shape=tableRow;horizontal=0;startSize=0;swimlaneHead=0;swimlaneBody=0;fillColor=none;collapsible=0;dropTarget=0;points=[[0,0.5],[1,0.5]];portConstraint=eastwest;top=0;left=0;right=0;bottom=0;rounded=1;strokeColor=#D0CEE2;fontColor=#1A1A1A;" vertex="1" parent="yF1Oe0NCUgGeJrivjAx0-30">
          <mxGeometry y="270" width="320" height="30" as="geometry" />
        </mxCell>
        <mxCell id="yF1Oe0NCUgGeJrivjAx0-68" value="" style="shape=partialRectangle;connectable=0;fillColor=none;top=0;left=0;bottom=0;right=0;editable=1;overflow=hidden;rounded=1;strokeColor=#D0CEE2;fontColor=#1A1A1A;" vertex="1" parent="yF1Oe0NCUgGeJrivjAx0-67">
          <mxGeometry width="30" height="30" as="geometry">
            <mxRectangle width="30" height="30" as="alternateBounds" />
          </mxGeometry>
        </mxCell>
        <mxCell id="yF1Oe0NCUgGeJrivjAx0-69" value="created_at timestamp NOT NULL now 创建时间" style="shape=partialRectangle;connectable=0;fillColor=none;top=0;left=0;bottom=0;right=0;align=left;spacingLeft=6;overflow=hidden;rounded=1;strokeColor=#D0CEE2;fontColor=#1A1A1A;" vertex="1" parent="yF1Oe0NCUgGeJrivjAx0-67">
          <mxGeometry x="30" width="290" height="30" as="geometry">
            <mxRectangle width="290" height="30" as="alternateBounds" />
          </mxGeometry>
        </mxCell>
        <mxCell id="yF1Oe0NCUgGeJrivjAx0-70" value="" style="shape=tableRow;horizontal=0;startSize=0;swimlaneHead=0;swimlaneBody=0;fillColor=none;collapsible=0;dropTarget=0;points=[[0,0.5],[1,0.5]];portConstraint=eastwest;top=0;left=0;right=0;bottom=0;rounded=1;strokeColor=#D0CEE2;fontColor=#1A1A1A;" vertex="1" parent="yF1Oe0NCUgGeJrivjAx0-30">
          <mxGeometry y="300" width="320" height="30" as="geometry" />
        </mxCell>
        <mxCell id="yF1Oe0NCUgGeJrivjAx0-71" value="" style="shape=partialRectangle;connectable=0;fillColor=none;top=0;left=0;bottom=0;right=0;editable=1;overflow=hidden;rounded=1;strokeColor=#D0CEE2;fontColor=#1A1A1A;" vertex="1" parent="yF1Oe0NCUgGeJrivjAx0-70">
          <mxGeometry width="30" height="30" as="geometry">
            <mxRectangle width="30" height="30" as="alternateBounds" />
          </mxGeometry>
        </mxCell>
        <mxCell id="yF1Oe0NCUgGeJrivjAx0-72" value="updated_at timestamp NOT NULL now 更新时间" style="shape=partialRectangle;connectable=0;fillColor=none;top=0;left=0;bottom=0;right=0;align=left;spacingLeft=6;overflow=hidden;rounded=1;strokeColor=#D0CEE2;fontColor=#1A1A1A;" vertex="1" parent="yF1Oe0NCUgGeJrivjAx0-70">
          <mxGeometry x="30" width="290" height="30" as="geometry">
            <mxRectangle width="290" height="30" as="alternateBounds" />
          </mxGeometry>
        </mxCell>
        <mxCell id="yF1Oe0NCUgGeJrivjAx0-73" value="" style="edgeStyle=entityRelationEdgeStyle;fontSize=12;html=1;endArrow=ERoneToMany;rounded=1;strokeColor=#736CA8;fontColor=#1A1A1A;exitX=1;exitY=0.5;exitDx=0;exitDy=0;entryX=0;entryY=0.5;entryDx=0;entryDy=0;" edge="1" parent="1" source="4eFh2s2mqRWO35xnz03z-2" target="yF1Oe0NCUgGeJrivjAx0-34">
          <mxGeometry width="100" height="100" relative="1" as="geometry">
            <mxPoint x="780" y="750" as="sourcePoint" />
            <mxPoint x="880" y="650" as="targetPoint" />
            <Array as="points">
              <mxPoint x="940" y="350" />
            </Array>
          </mxGeometry>
        </mxCell>
        <mxCell id="4eFh2s2mqRWO35xnz03z-119" value="message (消息表)" style="shape=table;startSize=30;container=1;collapsible=1;childLayout=tableLayout;fixedRows=1;rowLines=0;fontStyle=1;align=center;resizeLast=1;html=1;labelBackgroundColor=none;fillColor=#5D7F99;strokeColor=#D0CEE2;fontColor=#1A1A1A;rounded=1;" parent="1" vertex="1">
          <mxGeometry x="600" y="300" width="320" height="330" as="geometry" />
        </mxCell>
        <mxCell id="4eFh2s2mqRWO35xnz03z-120" value="" style="shape=tableRow;horizontal=0;startSize=0;swimlaneHead=0;swimlaneBody=0;fillColor=none;collapsible=0;dropTarget=0;points=[[0,0.5],[1,0.5]];portConstraint=eastwest;top=0;left=0;right=0;bottom=1;labelBackgroundColor=none;strokeColor=#D0CEE2;fontColor=#1A1A1A;rounded=1;" parent="4eFh2s2mqRWO35xnz03z-119" vertex="1">
          <mxGeometry y="30" width="320" height="30" as="geometry" />
        </mxCell>
        <mxCell id="4eFh2s2mqRWO35xnz03z-121" value="PK" style="shape=partialRectangle;connectable=0;fillColor=none;top=0;left=0;bottom=0;right=0;fontStyle=1;overflow=hidden;whiteSpace=wrap;html=1;labelBackgroundColor=none;strokeColor=#D0CEE2;fontColor=#1A1A1A;rounded=1;" parent="4eFh2s2mqRWO35xnz03z-120" vertex="1">
          <mxGeometry width="30" height="30" as="geometry">
            <mxRectangle width="30" height="30" as="alternateBounds" />
          </mxGeometry>
        </mxCell>
        <mxCell id="4eFh2s2mqRWO35xnz03z-122" value="id uuid" style="shape=partialRectangle;connectable=0;fillColor=none;top=0;left=0;bottom=0;right=0;align=left;spacingLeft=6;fontStyle=5;overflow=hidden;whiteSpace=wrap;html=1;labelBackgroundColor=none;strokeColor=#D0CEE2;fontColor=#1A1A1A;rounded=1;" parent="4eFh2s2mqRWO35xnz03z-120" vertex="1">
          <mxGeometry x="30" width="290" height="30" as="geometry">
            <mxRectangle width="290" height="30" as="alternateBounds" />
          </mxGeometry>
        </mxCell>
        <mxCell id="4eFh2s2mqRWO35xnz03z-123" value="" style="shape=tableRow;horizontal=0;startSize=0;swimlaneHead=0;swimlaneBody=0;fillColor=none;collapsible=0;dropTarget=0;points=[[0,0.5],[1,0.5]];portConstraint=eastwest;top=0;left=0;right=0;bottom=0;labelBackgroundColor=none;strokeColor=#D0CEE2;fontColor=#1A1A1A;rounded=1;" parent="4eFh2s2mqRWO35xnz03z-119" vertex="1">
          <mxGeometry y="60" width="320" height="30" as="geometry" />
        </mxCell>
        <mxCell id="4eFh2s2mqRWO35xnz03z-124" value="IDX" style="shape=partialRectangle;connectable=0;fillColor=none;top=0;left=0;bottom=0;right=0;editable=1;overflow=hidden;whiteSpace=wrap;html=1;labelBackgroundColor=none;strokeColor=#D0CEE2;fontColor=#1A1A1A;rounded=1;" parent="4eFh2s2mqRWO35xnz03z-123" vertex="1">
          <mxGeometry width="30" height="30" as="geometry">
            <mxRectangle width="30" height="30" as="alternateBounds" />
          </mxGeometry>
        </mxCell>
        <mxCell id="4eFh2s2mqRWO35xnz03z-125" value="conversation_id uuid NOT NULL 会话ID" style="shape=partialRectangle;connectable=0;fillColor=none;top=0;left=0;bottom=0;right=0;align=left;spacingLeft=6;overflow=hidden;whiteSpace=wrap;html=1;labelBackgroundColor=none;strokeColor=#D0CEE2;fontColor=#1A1A1A;rounded=1;" parent="4eFh2s2mqRWO35xnz03z-123" vertex="1">
          <mxGeometry x="30" width="290" height="30" as="geometry">
            <mxRectangle width="290" height="30" as="alternateBounds" />
          </mxGeometry>
        </mxCell>
        <mxCell id="4eFh2s2mqRWO35xnz03z-126" value="" style="shape=tableRow;horizontal=0;startSize=0;swimlaneHead=0;swimlaneBody=0;fillColor=none;collapsible=0;dropTarget=0;points=[[0,0.5],[1,0.5]];portConstraint=eastwest;top=0;left=0;right=0;bottom=0;labelBackgroundColor=none;strokeColor=#D0CEE2;fontColor=#1A1A1A;rounded=1;" parent="4eFh2s2mqRWO35xnz03z-119" vertex="1">
          <mxGeometry y="90" width="320" height="30" as="geometry" />
        </mxCell>
        <mxCell id="4eFh2s2mqRWO35xnz03z-127" value="IDX" style="shape=partialRectangle;connectable=0;fillColor=none;top=0;left=0;bottom=0;right=0;editable=1;overflow=hidden;whiteSpace=wrap;html=1;labelBackgroundColor=none;strokeColor=#D0CEE2;fontColor=#1A1A1A;rounded=1;" parent="4eFh2s2mqRWO35xnz03z-126" vertex="1">
          <mxGeometry width="30" height="30" as="geometry">
            <mxRectangle width="30" height="30" as="alternateBounds" />
          </mxGeometry>
        </mxCell>
        <mxCell id="4eFh2s2mqRWO35xnz03z-128" value="account_id uuid NOT NULL 用户ID" style="shape=partialRectangle;connectable=0;fillColor=none;top=0;left=0;bottom=0;right=0;align=left;spacingLeft=6;overflow=hidden;whiteSpace=wrap;html=1;labelBackgroundColor=none;strokeColor=#D0CEE2;fontColor=#1A1A1A;rounded=1;" parent="4eFh2s2mqRWO35xnz03z-126" vertex="1">
          <mxGeometry x="30" width="290" height="30" as="geometry">
            <mxRectangle width="290" height="30" as="alternateBounds" />
          </mxGeometry>
        </mxCell>
        <mxCell id="4eFh2s2mqRWO35xnz03z-129" value="" style="shape=tableRow;horizontal=0;startSize=0;swimlaneHead=0;swimlaneBody=0;fillColor=none;collapsible=0;dropTarget=0;points=[[0,0.5],[1,0.5]];portConstraint=eastwest;top=0;left=0;right=0;bottom=0;labelBackgroundColor=none;strokeColor=#D0CEE2;fontColor=#1A1A1A;rounded=1;" parent="4eFh2s2mqRWO35xnz03z-119" vertex="1">
          <mxGeometry y="120" width="320" height="30" as="geometry" />
        </mxCell>
        <mxCell id="4eFh2s2mqRWO35xnz03z-130" value="" style="shape=partialRectangle;connectable=0;fillColor=none;top=0;left=0;bottom=0;right=0;editable=1;overflow=hidden;whiteSpace=wrap;html=1;labelBackgroundColor=none;strokeColor=#D0CEE2;fontColor=#1A1A1A;rounded=1;" parent="4eFh2s2mqRWO35xnz03z-129" vertex="1">
          <mxGeometry width="30" height="30" as="geometry">
            <mxRectangle width="30" height="30" as="alternateBounds" />
          </mxGeometry>
        </mxCell>
        <mxCell id="4eFh2s2mqRWO35xnz03z-131" value="query text NOT NULL &quot;&quot; 人类提问" style="shape=partialRectangle;connectable=0;fillColor=none;top=0;left=0;bottom=0;right=0;align=left;spacingLeft=6;overflow=hidden;whiteSpace=wrap;html=1;labelBackgroundColor=none;strokeColor=#D0CEE2;fontColor=#1A1A1A;rounded=1;" parent="4eFh2s2mqRWO35xnz03z-129" vertex="1">
          <mxGeometry x="30" width="290" height="30" as="geometry">
            <mxRectangle width="290" height="30" as="alternateBounds" />
          </mxGeometry>
        </mxCell>
        <mxCell id="4eFh2s2mqRWO35xnz03z-132" value="" style="shape=tableRow;horizontal=0;startSize=0;swimlaneHead=0;swimlaneBody=0;fillColor=none;collapsible=0;dropTarget=0;points=[[0,0.5],[1,0.5]];portConstraint=eastwest;top=0;left=0;right=0;bottom=0;labelBackgroundColor=none;strokeColor=#D0CEE2;fontColor=#1A1A1A;rounded=1;" parent="4eFh2s2mqRWO35xnz03z-119" vertex="1">
          <mxGeometry y="150" width="320" height="30" as="geometry" />
        </mxCell>
        <mxCell id="4eFh2s2mqRWO35xnz03z-133" value="" style="shape=partialRectangle;connectable=0;fillColor=none;top=0;left=0;bottom=0;right=0;editable=1;overflow=hidden;labelBackgroundColor=none;strokeColor=#D0CEE2;fontColor=#1A1A1A;rounded=1;" parent="4eFh2s2mqRWO35xnz03z-132" vertex="1">
          <mxGeometry width="30" height="30" as="geometry">
            <mxRectangle width="30" height="30" as="alternateBounds" />
          </mxGeometry>
        </mxCell>
        <mxCell id="4eFh2s2mqRWO35xnz03z-134" value="answer text NOT NULL &quot;&quot; AI回答" style="shape=partialRectangle;connectable=0;fillColor=none;top=0;left=0;bottom=0;right=0;align=left;spacingLeft=6;overflow=hidden;labelBackgroundColor=none;strokeColor=#D0CEE2;fontColor=#1A1A1A;rounded=1;" parent="4eFh2s2mqRWO35xnz03z-132" vertex="1">
          <mxGeometry x="30" width="290" height="30" as="geometry">
            <mxRectangle width="290" height="30" as="alternateBounds" />
          </mxGeometry>
        </mxCell>
        <mxCell id="4eFh2s2mqRWO35xnz03z-135" value="" style="shape=tableRow;horizontal=0;startSize=0;swimlaneHead=0;swimlaneBody=0;fillColor=none;collapsible=0;dropTarget=0;points=[[0,0.5],[1,0.5]];portConstraint=eastwest;top=0;left=0;right=0;bottom=0;labelBackgroundColor=none;strokeColor=#D0CEE2;fontColor=#1A1A1A;rounded=1;" parent="4eFh2s2mqRWO35xnz03z-119" vertex="1">
          <mxGeometry y="180" width="320" height="30" as="geometry" />
        </mxCell>
        <mxCell id="4eFh2s2mqRWO35xnz03z-136" value="" style="shape=partialRectangle;connectable=0;fillColor=none;top=0;left=0;bottom=0;right=0;editable=1;overflow=hidden;labelBackgroundColor=none;strokeColor=#D0CEE2;fontColor=#1A1A1A;rounded=1;" parent="4eFh2s2mqRWO35xnz03z-135" vertex="1">
          <mxGeometry width="30" height="30" as="geometry">
            <mxRectangle width="30" height="30" as="alternateBounds" />
          </mxGeometry>
        </mxCell>
        <mxCell id="4eFh2s2mqRWO35xnz03z-137" value="answer_tokens int NOT NULL 0 消耗token数" style="shape=partialRectangle;connectable=0;fillColor=none;top=0;left=0;bottom=0;right=0;align=left;spacingLeft=6;overflow=hidden;labelBackgroundColor=none;strokeColor=#D0CEE2;fontColor=#1A1A1A;rounded=1;" parent="4eFh2s2mqRWO35xnz03z-135" vertex="1">
          <mxGeometry x="30" width="290" height="30" as="geometry">
            <mxRectangle width="290" height="30" as="alternateBounds" />
          </mxGeometry>
        </mxCell>
        <mxCell id="4eFh2s2mqRWO35xnz03z-138" value="" style="shape=tableRow;horizontal=0;startSize=0;swimlaneHead=0;swimlaneBody=0;fillColor=none;collapsible=0;dropTarget=0;points=[[0,0.5],[1,0.5]];portConstraint=eastwest;top=0;left=0;right=0;bottom=0;labelBackgroundColor=none;strokeColor=#D0CEE2;fontColor=#1A1A1A;rounded=1;" parent="4eFh2s2mqRWO35xnz03z-119" vertex="1">
          <mxGeometry y="210" width="320" height="30" as="geometry" />
        </mxCell>
        <mxCell id="4eFh2s2mqRWO35xnz03z-139" value="" style="shape=partialRectangle;connectable=0;fillColor=none;top=0;left=0;bottom=0;right=0;editable=1;overflow=hidden;labelBackgroundColor=none;strokeColor=#D0CEE2;fontColor=#1A1A1A;rounded=1;" parent="4eFh2s2mqRWO35xnz03z-138" vertex="1">
          <mxGeometry width="30" height="30" as="geometry">
            <mxRectangle width="30" height="30" as="alternateBounds" />
          </mxGeometry>
        </mxCell>
        <mxCell id="4eFh2s2mqRWO35xnz03z-140" value="response_latency int NOT NULL 0 消息总耗时" style="shape=partialRectangle;connectable=0;fillColor=none;top=0;left=0;bottom=0;right=0;align=left;spacingLeft=6;overflow=hidden;labelBackgroundColor=none;strokeColor=#D0CEE2;fontColor=#1A1A1A;rounded=1;" parent="4eFh2s2mqRWO35xnz03z-138" vertex="1">
          <mxGeometry x="30" width="290" height="30" as="geometry">
            <mxRectangle width="290" height="30" as="alternateBounds" />
          </mxGeometry>
        </mxCell>
        <mxCell id="4eFh2s2mqRWO35xnz03z-141" value="" style="shape=tableRow;horizontal=0;startSize=0;swimlaneHead=0;swimlaneBody=0;fillColor=none;collapsible=0;dropTarget=0;points=[[0,0.5],[1,0.5]];portConstraint=eastwest;top=0;left=0;right=0;bottom=0;labelBackgroundColor=none;strokeColor=#D0CEE2;fontColor=#1A1A1A;rounded=1;" parent="4eFh2s2mqRWO35xnz03z-119" vertex="1">
          <mxGeometry y="240" width="320" height="30" as="geometry" />
        </mxCell>
        <mxCell id="4eFh2s2mqRWO35xnz03z-142" value="" style="shape=partialRectangle;connectable=0;fillColor=none;top=0;left=0;bottom=0;right=0;editable=1;overflow=hidden;labelBackgroundColor=none;strokeColor=#D0CEE2;fontColor=#1A1A1A;rounded=1;" parent="4eFh2s2mqRWO35xnz03z-141" vertex="1">
          <mxGeometry width="30" height="30" as="geometry">
            <mxRectangle width="30" height="30" as="alternateBounds" />
          </mxGeometry>
        </mxCell>
        <mxCell id="4eFh2s2mqRWO35xnz03z-143" value="created_at timestamp NOT NULL now 创建时间" style="shape=partialRectangle;connectable=0;fillColor=none;top=0;left=0;bottom=0;right=0;align=left;spacingLeft=6;overflow=hidden;labelBackgroundColor=none;strokeColor=#D0CEE2;fontColor=#1A1A1A;rounded=1;" parent="4eFh2s2mqRWO35xnz03z-141" vertex="1">
          <mxGeometry x="30" width="290" height="30" as="geometry">
            <mxRectangle width="290" height="30" as="alternateBounds" />
          </mxGeometry>
        </mxCell>
        <mxCell id="4eFh2s2mqRWO35xnz03z-144" value="" style="shape=tableRow;horizontal=0;startSize=0;swimlaneHead=0;swimlaneBody=0;fillColor=none;collapsible=0;dropTarget=0;points=[[0,0.5],[1,0.5]];portConstraint=eastwest;top=0;left=0;right=0;bottom=0;labelBackgroundColor=none;strokeColor=#D0CEE2;fontColor=#1A1A1A;rounded=1;" parent="4eFh2s2mqRWO35xnz03z-119" vertex="1">
          <mxGeometry y="270" width="320" height="30" as="geometry" />
        </mxCell>
        <mxCell id="4eFh2s2mqRWO35xnz03z-145" value="" style="shape=partialRectangle;connectable=0;fillColor=none;top=0;left=0;bottom=0;right=0;editable=1;overflow=hidden;labelBackgroundColor=none;strokeColor=#D0CEE2;fontColor=#1A1A1A;rounded=1;" parent="4eFh2s2mqRWO35xnz03z-144" vertex="1">
          <mxGeometry width="30" height="30" as="geometry">
            <mxRectangle width="30" height="30" as="alternateBounds" />
          </mxGeometry>
        </mxCell>
        <mxCell id="4eFh2s2mqRWO35xnz03z-146" value="updated_at timestamp NOT NULL now 更新时间" style="shape=partialRectangle;connectable=0;fillColor=none;top=0;left=0;bottom=0;right=0;align=left;spacingLeft=6;overflow=hidden;labelBackgroundColor=none;strokeColor=#D0CEE2;fontColor=#1A1A1A;rounded=1;" parent="4eFh2s2mqRWO35xnz03z-144" vertex="1">
          <mxGeometry x="30" width="290" height="30" as="geometry">
            <mxRectangle width="290" height="30" as="alternateBounds" />
          </mxGeometry>
        </mxCell>
        <mxCell id="4eFh2s2mqRWO35xnz03z-156" value="" style="shape=tableRow;horizontal=0;startSize=0;swimlaneHead=0;swimlaneBody=0;fillColor=none;collapsible=0;dropTarget=0;points=[[0,0.5],[1,0.5]];portConstraint=eastwest;top=0;left=0;right=0;bottom=0;rounded=1;strokeColor=#D0CEE2;fontColor=#1A1A1A;labelBackgroundColor=none;" parent="4eFh2s2mqRWO35xnz03z-119" vertex="1">
          <mxGeometry y="300" width="320" height="30" as="geometry" />
        </mxCell>
        <mxCell id="4eFh2s2mqRWO35xnz03z-157" value="" style="shape=partialRectangle;connectable=0;fillColor=none;top=0;left=0;bottom=0;right=0;editable=1;overflow=hidden;rounded=1;strokeColor=#D0CEE2;fontColor=#1A1A1A;labelBackgroundColor=none;" parent="4eFh2s2mqRWO35xnz03z-156" vertex="1">
          <mxGeometry width="30" height="30" as="geometry">
            <mxRectangle width="30" height="30" as="alternateBounds" />
          </mxGeometry>
        </mxCell>
        <mxCell id="4eFh2s2mqRWO35xnz03z-158" value="deleted_at timestamp 删除时间" style="shape=partialRectangle;connectable=0;fillColor=none;top=0;left=0;bottom=0;right=0;align=left;spacingLeft=6;overflow=hidden;rounded=1;strokeColor=#D0CEE2;fontColor=#1A1A1A;labelBackgroundColor=none;" parent="4eFh2s2mqRWO35xnz03z-156" vertex="1">
          <mxGeometry x="30" width="290" height="30" as="geometry">
            <mxRectangle width="290" height="30" as="alternateBounds" />
          </mxGeometry>
        </mxCell>
        <mxCell id="yF1Oe0NCUgGeJrivjAx0-74" value="" style="edgeStyle=entityRelationEdgeStyle;fontSize=12;html=1;endArrow=ERoneToMany;rounded=1;strokeColor=#736CA8;fontColor=#1A1A1A;exitX=1;exitY=0.5;exitDx=0;exitDy=0;entryX=0;entryY=0.5;entryDx=0;entryDy=0;" edge="1" parent="1" source="yF1Oe0NCUgGeJrivjAx0-2" target="yF1Oe0NCUgGeJrivjAx0-37">
          <mxGeometry width="100" height="100" relative="1" as="geometry">
            <mxPoint x="830" y="960" as="sourcePoint" />
            <mxPoint x="930" y="860" as="targetPoint" />
          </mxGeometry>
        </mxCell>
      </root>
    </mxGraphModel>
  </diagram>
</mxfile>
